<?xml version="1.0" encoding="utf-8"?>
<!-- Generator: Adobe Illustrator 23.0.0, SVG Export Plug-In . SVG Version: 6.00 Build 0)  -->
<svg version="1.1" id="Camada_1" xmlns="http://www.w3.org/2000/svg" xmlns:xlink="http://www.w3.org/1999/xlink" x="0px" y="0px"
	 viewBox="0 0 1280 800" style="enable-background:new 0 0 1280 800;" xml:space="preserve">
<style type="text/css">
	.st0{fill:#AE7640;}
	.st1{fill:#C29060;}
	.st2{fill:#9C6D3F;}
	.st3{fill:#7B542D;}
	.st4{fill:#E0D1AF;}
	.st5{fill:#D0C6B1;}
	.st6{fill:#C4B79B;}
	.st7{fill:#B4A78C;}
	.st8{fill-opacity:5.098039e-02;}
	.st9{fill:#946538;}
	.st10{fill:#A06D3D;}
	.st11{fill:#333333;}
	.st12{fill:#B68353;}
	.st13{fill:#B97D55;}
	.st14{fill-opacity:3.137255e-02;}
	.st15{fill:#C49676;}
	.st16{fill:#171717;}
	.st17{fill:#A1B1B1;}
	.st18{fill:url(#SVGID_1_);}
	.st19{fill:#B0D5DA;}
	.st20{fill:#C4EEF3;}
	.st21{fill-opacity:0.102;}
	.st22{fill:url(#SVGID_2_);}
	.st23{fill:url(#SVGID_3_);}
	.st24{fill:#F0D48F;}
	.st25{fill:#E7C163;}
	.st26{fill:#9598A6;}
	.st27{fill:#838796;}
	.st28{fill:#FFFFFF;}
	.st29{fill:#73CD4B;}
	.st30{fill:#FFFFFF;fill-opacity:0.4;}
	.st31{fill:#E86A17;}
	.st32{fill:#C6B48C;}
	.st33{fill:#8A5E35;}
	.st34{fill:#E7B900;}
	.st35{fill:#63B141;}
	.st36{fill:#FFCC00;}
	.st37{fill:#1A9AD0;}
	.st38{fill:#CB631F;}
	.st39{fill:#1EA7E1;}
	.st40{fill:url(#SVGID_4_);}
	.st41{fill:#DBD2BB;}
	.st42{fill:#EEE7D6;}
	.st43{fill:#9A8E75;}
	.st44{fill:#6C6E74;}
	.st45{fill:#D4C6A6;}
	.st46{fill:#855D38;}
	.st47{fill:#7B5735;}
	.st48{fill:#D7AA80;}
	.st49{fill:#C99869;}
	.st50{fill:#9DA0AD;}
	.st51{fill:#ACC0C1;}
	.st52{fill:#9DAEAF;}
	.st53{fill:#A8BEBF;}
	.st54{fill:#859495;}
	.st55{fill:#808393;}
	.st56{fill:#676B77;}
	.st57{fill:#757887;}
	.st58{fill:#D3AD89;}
	.st59{fill:#B98046;}
	.st60{fill:#C18C57;}
	.st61{fill:#96A9AA;}
	.st62{fill:#A3B3B4;}
	.st63{fill:#BCCBCB;}
	.st64{fill:#80BE1F;}
	.st65{fill:#9EB6B6;}
</style>
<g>
	<path class="st0" d="M386,491.8V541c0,2.7-1.3,4-4,4h-53c-2.7,0-4-1.3-4-4v-49.2c0.1-2.5,1.4-3.8,4-3.8h53
		C384.6,488,385.9,489.3,386,491.8 M381,493h-51v47h51V493"/>
	<path class="st1" d="M325,491.8V490c0-2.7,1.3-4,4-4h53c2.7,0,4,1.3,4,4v1.8c-0.1-2.5-1.4-3.8-4-3.8h-53
		C326.4,488,325.1,489.3,325,491.8"/>
	<path class="st2" d="M381,493v47h-51v-47H381"/>
	<path class="st3" d="M367.5,517v-8.3c0-0.3-0.2-0.5-0.5-0.5h-3.6v9.4h3.6C367.4,517.7,367.5,517.5,367.5,517 M371,517
		c0,1.1-0.4,2-1.1,2.8c-0.8,0.8-1.7,1.2-2.8,1.2h-3.6v5.5c0,0.7-0.2,1.3-0.8,1.8c-0.6,0.5-1.2,0.8-1.9,0.8h-15.1
		c-0.8,0-1.4-0.3-1.9-0.8s-0.8-1.1-0.8-1.8V505h24c1.1,0,2,0.4,2.8,1.1c0.7,0.7,1.1,1.6,1.1,2.7V517"/>
	<path class="st0" d="M466,491.8V541c0,2.7-1.3,4-4,4h-53c-2.7,0-4-1.3-4-4v-49.2c0.1-2.5,1.4-3.8,4-3.8h53
		C464.6,488,465.9,489.3,466,491.8 M461,493h-51v47h51V493"/>
	<path class="st1" d="M405,491.8V490c0-2.7,1.3-4,4-4h53c2.7,0,4,1.3,4,4v1.8c-0.1-2.5-1.4-3.8-4-3.8h-53
		C406.4,488,405.1,489.3,405,491.8"/>
	<path class="st2" d="M461,493v47h-51v-47H461"/>
	<path class="st3" d="M446.7,512.3L446.7,512.3h0.2h3.4c0.4,0.1,0.7,0.4,0.7,1v13.9c0,0.6-0.3,0.9-0.9,0.9h-0.1h-0.1h-0.2h-0.1h-0.1
		h-0.1H449h-0.2h-0.1h-0.1h-0.2h-0.2H448h-0.2h-0.1h-0.2h-0.2h-0.1c-0.7,0-1-0.3-1-0.9v-2.3H446h-19.3v2.3c0,0.6-0.3,0.9-1,0.9
		l-0.3,0l-0.3,0l-0.2,0l-0.3,0h-0.1h-0.1h-0.1h-0.2H424h-0.1h-0.1h-0.2h-0.1h-0.1H423h-0.2c-0.6,0-0.9-0.3-0.9-0.9v-20.2
		c0-0.6,0.3-0.9,0.9-0.9h0.2h0.2h0.1h0.1h0.2h0.1h0.1h0.1h0.2h0.1h0.1h0.1h0.3h0.2h0.3h0.3c0.6,0,1,0.3,1,0.9v5.3h2.6
		c0.5,0,0.8,0.1,1.1,0.4l0.5,1.1v3.8h1.3v-3.8c0-0.4,0.2-0.8,0.6-1.1l0.5-0.3H446.7"/>
	<g>
		<path class="st4" d="M0,70V0h70v70H0"/>
		<path class="st5" d="M0,17v-2h13c2,0,3,1,3,3v1.9c0-1.9-1-2.9-3-2.9H0 M13,50c2,0,3,1,3,3v1.9c0-1.9-1-2.8-3-2.8H0v-2H13"/>
		<path class="st6" d="M0,17h13c2,0,3,0.9,3,2.9V32c0,2-1,3-3,3H0V17 M16,54.8v12.2c0,2-1,2.9-3.1,2.9H0V52h13C15,52,16,53,16,54.8"
			/>
		<path class="st7" d="M13,15H0V0h13V15 M0,35h13v15H0V35"/>
	</g>
	<g>
		<path class="st4" d="M230,70h-70V0h70V70"/>
		<path class="st5" d="M230,15v2h-13c-2,0-3,0.9-3,2.9V18c0-2,1-3,3-3H230 M230,50v2h-13c-2,0-3,1-3,2.8V53c0-2,1-3,3-3H230"/>
		<path class="st7" d="M230,50h-13V35h13V50 M217,15V0h13v15H217"/>
		<path class="st6" d="M230,17v18h-13c-2,0-3-1-3-3V19.9c0-1.9,1-2.9,3-2.9H230 M230,52v18h-12.9c-2,0-3.1-1-3.1-2.9V54.8
			c0-1.9,1-2.8,3-2.8H230"/>
	</g>
	<g>
		<path class="st4" d="M70,80v70H0V80H70"/>
		<path class="st7" d="M13,95H0V80h13V95 M0,115h13v15H0V115"/>
		<path class="st5" d="M16,99.8c0-1.9-1-2.8-3-2.8H0v-2h13c2,0,3,1,3,2.9V99.8 M0,132v-2h13c2,0,3,1,3,2.9v1.9c0-1.9-1-2.9-3-2.9H0"
			/>
		<path class="st6" d="M0,132h13c2,0,3,0.9,3,2.9v12.2c0,2-1,2.9-3.1,2.9H0V132 M0,97h13c2,0,3,1,3,2.8v12.2c0,2-1,2.9-3,2.9H0V97"
			/>
		<path class="st8" d="M0,80h70v10H0V80"/>
	</g>
	<g>
		<path class="st4" d="M230,150h-70V80h70V150"/>
		<path class="st7" d="M217,95V80h13v15H217 M230,115v15h-13v-15H230"/>
		<path class="st5" d="M230,95v2h-13c-2,0-3,1-3,2.8v-1.9c0-2,1-2.9,3-2.9H230 M230,130v2h-13c-2,0-3,0.9-3,2.9v-1.9
			c0-2,1-2.9,3-2.9H230"/>
		<path class="st6" d="M230,97v18h-13c-2,0-3-1-3-2.9V99.8c0-1.9,1-2.8,3-2.8H230 M230,132v18h-12.9c-2,0-3.1-1-3.1-2.9v-12.2
			c0-1.9,1-2.9,3-2.9H230"/>
		<path class="st8" d="M230,90h-70V80h70V90"/>
	</g>
	<g>
		<path class="st4" d="M150,70H80V0h70V70"/>
	</g>
	<g>
		<path class="st4" d="M80,80h70v70H80V80"/>
		<path class="st8" d="M80,80h70v10H80V80"/>
	</g>
	<g>
		<path class="st4" d="M70,160v70H0v-70H70"/>
		<path class="st7" d="M0,175v-15h13v15H0 M13,195v15H0v-15H13"/>
		<path class="st5" d="M0,175h13c2,0,3,1,3,2.9v1.9c0-1.9-1-2.9-3-2.9H0V175 M13,210c2,0,3,1,3,2.9v1.9c0-1.9-1-2.9-3-2.9H0v-2H13"
			/>
		<path class="st6" d="M16,179.9v12.2c0,2-1,2.9-3,2.9H0v-18h13C15,177,16,177.9,16,179.9 M16,214.9v12.2c0,2-1,2.9-3.1,2.9H0v-18
			h13C15,212,16,212.9,16,214.9"/>
		<path class="st6" d="M0,213.9v-12h70v12H0"/>
		<path class="st5" d="M0,201.9v-2h70v2H0"/>
		<path class="st7" d="M70,213.9V230H0v-16.1H70"/>
	</g>
	<g>
		<path class="st4" d="M80,199.9V160h70v39.9H80"/>
		<path class="st7" d="M150,213.9V230H80v-16.1H150"/>
		<path class="st6" d="M150,213.9H80v-12h70V213.9"/>
		<path class="st5" d="M150,199.9v2H80v-2H150"/>
	</g>
	<g>
		<path class="st4" d="M230,230h-70v-70h70V230"/>
		<path class="st6" d="M230,230h-12.9c-2,0-3.1-1-3.1-2.9v-12.2c0-1.9,1-2.9,3-2.9h13V230 M214,179.9c0-1.9,1-2.9,3-2.9h13v18h-13
			c-2,0-3-1-3-2.9V179.9"/>
		<path class="st5" d="M214,179.9v-1.9c0-2,1-2.9,3-2.9h13v2h-13C215,177,214,177.9,214,179.9 M230,210v2h-13c-2,0-3,0.9-3,2.9v-1.9
			c0-2,1-2.9,3-2.9H230"/>
		<path class="st7" d="M230,210h-13v-15h13V210 M230,175h-13v-15h13V175"/>
		<path class="st5" d="M160,201.9v-2h70v2H160"/>
		<path class="st6" d="M160,201.9h70v12h-70V201.9"/>
		<path class="st7" d="M230,213.9V230h-70v-16.1H230"/>
	</g>
	<g>
		<path class="st6" d="M870,59.8c-0.1-7.5-3-14-8.6-19.4c-5.4-5.2-11.9-8-19.5-8.2l-12.9,0c-8,0-14.8,2.7-20.5,8.2
			c-5.5,5.4-8.3,11.9-8.5,19.4v-1.7c0-7.8,2.8-14.4,8.5-20c5.7-5.5,12.5-8.2,20.5-8.2l12.9,0c7.6,0.2,14.1,2.9,19.5,8.2
			c5.7,5.5,8.6,12.2,8.6,20V59.8"/>
		<path class="st7" d="M870,59.8v8.5l-0.1,1.7h-9.9v-9.8v-2c0-5-1.9-9.2-5.5-12.8c-3.5-3.4-7.7-5.2-12.6-5.4l-12.9,0
			c-5.3,0-9.8,1.8-13.6,5.5l0.1-0.1c-3.6,3.5-5.5,7.8-5.5,12.8v1.7V70h-10l0-1.4v-8.7c0.1-7.5,3-14,8.5-19.4
			c5.7-5.5,12.5-8.2,20.5-8.2l12.9,0c7.6,0.2,14.1,2.9,19.5,8.2C867,45.9,869.8,52.3,870,59.8"/>
		<path class="st9" d="M810,59.8v-1.7c0-5,1.8-9.3,5.5-12.8l-0.1,0.1c3.8-3.6,8.3-5.5,13.6-5.5l12.9,0c4.9,0.2,9.1,2,12.6,5.4
			c3.6,3.5,5.5,7.8,5.5,12.8v2c-0.1-4.9-1.9-9-5.5-12.5c-3.5-3.4-7.7-5.2-12.6-5.4l-12.9,0c-5.3,0-9.8,1.8-13.6,5.5l0.1-0.1
			C811.9,51,810.1,55.1,810,59.8"/>
		<path class="st10" d="M810,59.8c0.1-4.8,2-8.8,5.5-12.3l-0.1,0.1c3.8-3.6,8.3-5.5,13.6-5.5l12.9,0c4.9,0.2,9.1,2,12.6,5.4
			c3.6,3.5,5.4,7.6,5.5,12.5V70h-50V59.8"/>
	</g>
	<g>
		<path class="st7" d="M860,80h10v65.6l-0.1,4.4H860V80 M810,150h-10l0-3.8V80h10V150"/>
		<path class="st10" d="M810,150V80h50v70H810 M852,111.4v-0.1v-0.5c0-1.1-0.4-2-1.2-2.8c-0.7-0.7-1.7-1.1-2.8-1.1
			c-1.1,0-2,0.3-2.8,1.1c-0.8,0.8-1.2,1.7-1.2,2.8v0.5l0.1,0.1l-0.1,0.4v0.5l0.1,0.1l-0.1,0.4v0.5c0.1,0.8,0.5,1.6,1.2,2.3l0.1,0.1
			l-1.2,3.1c-0.2,0.4-0.2,0.7,0,0.9l0,0l0,0.1c-0.2,0.4-0.2,0.7,0,0.9l0,0l0,0.1c-0.2,0.4-0.2,0.7,0,0.9c0.2,0.2,0.4,0.3,0.8,0.3h6
			c0.4,0,0.7-0.1,0.9-0.3c0.1-0.2,0.1-0.5,0-0.9v-0.1c0.1-0.2,0.1-0.5,0-0.9v-0.1v0c0.1-0.2,0.1-0.5,0-0.9l-1.2-3.1l0.1-0.1
			c0.7-0.7,1.1-1.4,1.2-2.3v-0.5v-0.4v-0.1v-0.5V111.4"/>
		<path class="st11" d="M852,111.4c-0.1,0.8-0.5,1.5-1.2,2.1l-0.8,0.5l0.7,1.6l1.2,3.1c0.1,0.4,0.1,0.7,0,0.9v0L851,120h-6
			c-0.4,0-0.6-0.1-0.8-0.3l0,0c-0.2-0.2-0.2-0.5,0-0.9l1.2-3.1l0.5-1.6l-0.7-0.5c-0.7-0.6-1-1.3-1.1-2.1l-0.1-0.1v-0.5
			c0-1.1,0.4-2,1.2-2.8c0.7-0.7,1.7-1.1,2.8-1.1c1.1,0,2.1,0.3,2.8,1.1c0.8,0.8,1.2,1.7,1.2,2.8v0.5V111.4"/>
		<path class="st12" d="M852,111.4v0.4v0.5v0.1v0.4v0.5c-0.1,0.8-0.5,1.6-1.2,2.3l-0.1,0.1l-0.7-1.6l0.8-0.5
			C851.5,112.9,851.9,112.2,852,111.4 M852,119.7L852,119.7c0.1,0.5,0.1,0.8,0,1v0.1c0.1,0.4,0.1,0.7,0,0.9
			c-0.2,0.2-0.5,0.3-0.9,0.3h-6c-0.4,0-0.7-0.1-0.8-0.3c-0.2-0.2-0.2-0.5,0-0.9l0-0.1l0,0c-0.2-0.2-0.2-0.5,0-0.9l0-0.1
			c0.2,0.2,0.4,0.3,0.8,0.3h6L852,119.7 M845.4,115.7l-0.1-0.1c-0.7-0.7-1.1-1.4-1.2-2.3v-0.5l0.1-0.4l-0.1-0.1v-0.5l0.1-0.4
			c0.1,0.8,0.5,1.5,1.1,2.1l0.7,0.5L845.4,115.7"/>
	</g>
	<path class="st13" d="M80,320h70v70H80V320"/>
	<path class="st14" d="M80.1,341.3l10.1-10l1.5-1.5l11.7,11.5l11.7-11.5l11.6,11.5l11.7-11.5l11.6,11.5v25.2L138.4,355l-11.7,11.5
		L115.1,355l-11.7,11.5L91.7,355L80,366.5L80.1,341.3L80.1,341.3 M80.1,379.5l10.2-10l1.4-1.5l11.7,11.5l11.7-11.5l11.6,11.5
		l11.7-11.5l11.7,11.5v10.2l-11.7-11.5l-11.7,11.5l-11.6-11.5l-11.7,11.5l-11.7-11.5l-11.6,11.5L80.1,379.5L80.1,379.5"/>
	<path class="st15" d="M80,241.9V240h70v1.9H80"/>
	<path class="st13" d="M80,241.9h70V310H80V241.9"/>
	<path class="st14" d="M115.1,249.8l11.6,11.5l11.7-11.5l11.6,11.5v25.2L138.4,275l-11.7,11.5L115.1,275l-11.7,11.5L91.7,275
		L80,286.5v-25.2h0.1l10.1-10l1.5-1.4l11.7,11.5L115.1,249.8 M91.7,288l11.7,11.5l11.7-11.5l11.6,11.5l11.7-11.5l11.7,11.5v10.2
		l-11.7-11.5l-11.7,11.5l-11.6-11.5l-11.7,11.5l-11.7-11.5l-11.6,11.5v-10.2h0l10.2-10L91.7,288"/>
	<g>
		<path class="st7" d="M940,80h10v65.6l-0.1,4.4H940V80 M890,150h-10l0-3.8V80h10V150"/>
		<path class="st11" d="M890,150V80h50v70H890"/>
	</g>
	<g>
		<path class="st6" d="M879.9,59.8v-1.7c0-7.8,2.8-14.4,8.4-20c5.7-5.5,12.5-8.2,20.5-8.2l13,0c7.6,0.2,14.1,2.9,19.5,8.2
			c5.7,5.5,8.6,12.2,8.6,20v1.7c-0.1-7.5-3-14-8.6-19.4c-5.4-5.2-11.9-8-19.5-8.2l-13,0c-8,0-14.8,2.7-20.5,8.2
			C882.8,45.9,880,52.3,879.9,59.8"/>
		<path class="st7" d="M879.9,59.8c0.1-7.5,2.9-14,8.4-19.4c5.7-5.5,12.5-8.2,20.5-8.2l13,0c7.6,0.2,14.1,2.9,19.5,8.2
			c5.6,5.4,8.5,11.9,8.6,19.4v8.5l-0.1,1.7h-10v-9.8v-2c0-5-1.9-9.2-5.5-12.8c-3.5-3.4-7.7-5.2-12.5-5.4l-13,0
			c-5.3,0-9.8,1.8-13.5,5.5l0-0.1c-3.6,3.5-5.4,7.8-5.4,12.8v1.7V70h-10l0-1.4V59.8"/>
		<path class="st16" d="M939.8,60.2c-0.1-4.9-1.9-9-5.5-12.5c-3.5-3.4-7.7-5.2-12.5-5.4l-13,0c-5.3,0-9.8,1.8-13.5,5.5l0-0.1
			c-3.5,3.4-5.3,7.5-5.4,12.3v-1.7c0-5,1.8-9.3,5.4-12.8l0,0.1c3.8-3.6,8.3-5.5,13.5-5.5l13,0c4.9,0.2,9,2,12.5,5.4
			c3.6,3.5,5.5,7.8,5.5,12.8V60.2"/>
		<path class="st11" d="M939.8,60.2V70h-49.9V59.8c0.1-4.8,1.9-8.8,5.4-12.3l0,0.1c3.8-3.6,8.3-5.5,13.5-5.5l13,0
			c4.9,0.2,9,2,12.5,5.4C937.9,51.1,939.8,55.3,939.8,60.2"/>
	</g>
	<path class="st6" d="M964.1,189.6v-2c0.2-7.5,3-13.9,8.5-19.3l1.4-1.3c5.4-4.6,11.8-6.9,19.1-6.9l1.2,0h0.8h0.8h0.2h0h1
		c7,0.2,13,2.5,18.2,6.9l1.3,1.3c5.6,5.4,8.4,11.8,8.6,19.3v1.3c-0.4-7.1-3.2-13.2-8.6-18.4l-1.5-1.3l-2.8-2.2
		c-4.5-3-9.5-4.5-15.2-4.7h-1h-1l-2,0h0c-6,0-11.4,1.6-16.1,4.7l-2.8,2.1l-1.5,1.4c-5.3,5.2-8.1,11.3-8.4,18.4L964.1,189.6
		 M974,218.1h41v2h-41V218.1"/>
	<path class="st11" d="M974,218.1V193h0.1v-5.2c0.1-4.8,1.9-8.9,5.5-12.4l0,0.1c3.8-3.6,8.3-5.4,13.5-5.4h0l2,0h1h1
		c4.9,0.2,9,1.9,12.5,5.4c3.5,3.4,5.4,7.5,5.5,12.3v5.2h0v25.1H974"/>
	<path class="st7" d="M974,218.1v2h41v-2V193h0v-5.2c-0.1-4.8-2-8.9-5.5-12.3c-3.5-3.4-7.7-5.2-12.5-5.4h-1h-1l-2,0h0
		c-5.2,0-9.7,1.8-13.5,5.4l0-0.1c-3.5,3.4-5.3,7.6-5.5,12.4v5.2H974V218.1 M1025.1,188.9v12.3l0,0.7l-0.1,0.4v6V230h-61v-37h0.1
		v-3.4l0.1-0.7c0.3-7.1,3.1-13.2,8.4-18.4l1.5-1.4l2.8-2.1c4.7-3.1,10.1-4.7,16.1-4.7h0l2,0h1h1c5.7,0.1,10.7,1.7,15.2,4.7l2.8,2.2
		l1.5,1.3C1021.9,175.7,1024.7,181.8,1025.1,188.9"/>
	<path class="st17" d="M1025.1,201.3v2.1l-0.1,5.1v-6l0.1-0.4L1025.1,201.3"/>
	<g>
		
			<linearGradient id="SVGID_1_" gradientUnits="userSpaceOnUse" x1="-819.2" y1="627.9518" x2="819.2" y2="627.9518" gradientTransform="matrix(0 2.673340e-02 3.167725e-02 0 974.6582 270.4)">
			<stop  offset="0" style="stop-color:#000000;stop-opacity:0"/>
			<stop  offset="1" style="stop-color:#000000;stop-opacity:0.302"/>
		</linearGradient>
		<path class="st18" d="M964,286v-8h0.1v-0.4c0.2-7.5,3-13.9,8.5-19.3l1.4-1.3c5.1-4.4,11.2-6.7,18-6.9v0h0.5h0h0.4h0h0.5l2.2,0h0.2
			h0h0.8h0.3h1l3,0.3v0.1c5.3,0.8,10.1,3,14.2,6.5l1.3,1.3c5.6,5.4,8.4,11.8,8.6,19.3v0.6v0.4v6.4c-0.3-7.2-3.2-13.5-8.6-18.7
			l-1.3-1.3c-4.1-3.5-8.9-5.7-14.2-6.5v-0.1l-1-0.1l-2-0.1h-1h-0.3H996h0h-1h-0.4H993h0v0c-7.3,0-13.6,2.3-19,6.9l-1.4,1.3
			c-5.5,5.4-8.3,11.8-8.5,19.3L964,286L964,286"/>
		<path class="st6" d="M964.1,286v-0.4c0.2-7.5,3-13.9,8.5-19.3l1.4-1.3c5.4-4.6,11.7-6.9,19-6.9v0h0h1.6h0.4h1h0h0.8h0.3h1l2,0.1
			l1,0.1v0.1c5.3,0.8,10.1,3,14.2,6.5l1.3,1.3c5.4,5.2,8.3,11.4,8.6,18.7v0.6v0.4h0l-0.1-0.5c-0.7-6.5-3.5-12.1-8.5-16.9l-1.5-1.3
			l-2.8-2.2c-3.4-2.3-7.2-3.7-11.3-4.3v-0.1l-1-0.1l-2-0.1h-1h-1h-1h0h-2h0v0c-6,0-11.3,1.6-16,4.7l-2.8,2.1l-1.5,1.4
			c-5,4.9-7.8,10.7-8.3,17.4H964.1 M974,298h41v2h-41V298"/>
		<path class="st7" d="M974,298v2h41v-2V286h0v-0.2c-0.1-4.8-2-8.9-5.5-12.3c-2.5-2.4-5.4-4-8.6-4.8v-0.2l-1-0.1l-2-0.2h-1h-1h-1
			h-0.9H993h0v0c-5.2,0-9.7,1.8-13.5,5.4l0-0.1c-3.5,3.4-5.3,7.5-5.5,12.3v0.2H974V298 M964,286L964,286h0.3
			c0.5-6.7,3.3-12.5,8.3-17.4l1.5-1.4l2.8-2.1c4.7-3.1,10.1-4.7,16-4.7v0h0h2h0h1h1h1l2,0.1l1,0.1v0.1c4.1,0.6,7.8,2,11.3,4.3
			l2.8,2.2l1.5,1.3c5,4.8,7.8,10.4,8.5,16.9l0.1,0.5h-0.1v2.4l0.1-1.4l0-0.4v5l0,0.3l-0.1,0.3v0.7v17h-61V286"/>
		<path class="st11" d="M974,298V286h0.1v-0.2c0.1-4.8,1.9-8.9,5.5-12.3l0,0.1c3.8-3.6,8.3-5.4,13.5-5.4v0h0h1.1h0.9h1h1h1l2,0.2
			l1,0.1v0.2c3.2,0.8,6.1,2.4,8.6,4.8c3.5,3.4,5.4,7.5,5.5,12.3v0.2h0V298H974"/>
		<path class="st17" d="M1025.1,286v0.3v0.4l0,0.4l-0.1,1.4L1025.1,286L1025.1,286L1025.1,286 M1025.1,291.6v1.3h-0.1v-0.7l0.1-0.3
			L1025.1,291.6"/>
	</g>
	<g>
		<path class="st6" d="M884.1,189.6v-1.9c0.2-7.5,3-13.9,8.5-19.3l1.4-1.3c5.4-4.6,11.8-6.9,19.1-6.9l1.2,0h0.8h0.8h0.2h0h1
			c7,0.2,13,2.5,18.2,6.9l1.3,1.3c5.6,5.4,8.4,11.8,8.6,19.3v1.3c-0.4-7.1-3.2-13.2-8.6-18.4l-1.5-1.3l-2.8-2.2
			c-4.5-3-9.5-4.5-15.2-4.7h-1h-1l-2,0h0c-6,0-11.4,1.6-16.1,4.7l-2.8,2.1l-1.5,1.4c-5.3,5.2-8.1,11.3-8.4,18.4L884.1,189.6
			 M894,218.1h41v2h-41V218.1"/>
		<path class="st7" d="M894,218.1v2h41v-2V193h0v-3.2v-2c-0.1-4.8-2-8.9-5.5-12.3c-3.5-3.4-7.7-5.2-12.5-5.4h-1h-1l-2,0h0
			c-5.2,0-9.7,1.8-13.5,5.4l0-0.1c-3.5,3.4-5.3,7.6-5.5,12.4v2v3.2H894V218.1 M945,208.4V230h-61v-37h0.1v-3.4l0.1-0.6
			c0.3-7.1,3.1-13.2,8.4-18.4l1.5-1.4l2.8-2.1c4.7-3.1,10.1-4.7,16.1-4.7h0l2,0h1h1c5.7,0.1,10.7,1.7,15.2,4.7l2.8,2.2l1.5,1.3
			c5.4,5.2,8.2,11.3,8.6,18.4v12.4l0,0.6l0,0.4V208.4"/>
		<path class="st19" d="M935,189.8c-0.1-4.8-2-8.9-5.5-12.3c-3.5-3.4-7.7-5.2-12.5-5.4h-1h-1l-2,0h0c-5.2,0-9.7,1.8-13.5,5.4l0-0.1
			c-3.5,3.4-5.3,7.6-5.5,12.4v-2c0.1-4.8,1.9-8.9,5.5-12.4l0,0.1c3.8-3.6,8.3-5.4,13.5-5.4h0l2,0h1h1c4.9,0.2,9,1.9,12.5,5.4
			c3.5,3.4,5.4,7.5,5.5,12.3V189.8"/>
		<path class="st20" d="M935,189.8v3.2h0v25.1h-41V193h0.1v-3.2c0.1-4.8,1.9-8.9,5.5-12.4l0,0.1c3.8-3.6,8.3-5.4,13.5-5.4h0l2,0h1h1
			c4.9,0.2,9,1.9,12.5,5.4C933.1,180.9,934.9,185,935,189.8"/>
		<path class="st17" d="M945.1,201.4v1.9l-0.1,5.1v-6l0-0.4L945.1,201.4"/>
		<path class="st7" d="M894,198v-5h18v-27.1h5V193h18v5h-18v2v20.1h-5V200v-2H894"/>
		<path class="st21" d="M894,198h18v2h-18V198 M917,200v-2h18v2H917"/>
	</g>
	<g>
		
			<linearGradient id="SVGID_2_" gradientUnits="userSpaceOnUse" x1="-819.2" y1="627.9518" x2="819.2" y2="627.9518" gradientTransform="matrix(0 2.673340e-02 3.167725e-02 0 894.6582 270.4)">
			<stop  offset="0" style="stop-color:#000000;stop-opacity:0"/>
			<stop  offset="1" style="stop-color:#000000;stop-opacity:0.302"/>
		</linearGradient>
		<path class="st22" d="M884,286v-8h0.1v-0.4c0.2-7.5,3-13.9,8.5-19.3l1.4-1.3c5.1-4.4,11.2-6.7,18-6.9v0h0.5h0h0.4h0h0.5l2.2,0h0.2
			h0h0.8h0.3h1l3,0.3v0.1c5.3,0.8,10.1,3,14.2,6.5l1.3,1.3c5.6,5.4,8.4,11.8,8.6,19.3v0.6v0.4v6.4c-0.3-7.2-3.2-13.5-8.6-18.7
			l-1.3-1.3c-4.1-3.5-8.9-5.7-14.2-6.5v-0.1l-1-0.1l-2-0.1h-1h-0.3H916h0h-1h-0.4H913h0v0c-7.3,0-13.6,2.3-19,6.9l-1.4,1.3
			c-5.5,5.4-8.3,11.8-8.5,19.3L884,286L884,286"/>
		<path class="st6" d="M945.1,285v0.6v0.4h0l0-0.5c-0.7-6.5-3.5-12.1-8.5-16.9l-1.5-1.3l-2.8-2.2c-3.4-2.3-7.2-3.7-11.3-4.3v-0.1
			l-1-0.1l-2-0.1h-1h-1h-1h0h-2h0v0c-6,0-11.3,1.6-16,4.7l-2.8,2.1l-1.5,1.4c-5,4.9-7.8,10.7-8.3,17.4h-0.2v-0.4
			c0.2-7.5,3-13.9,8.5-19.3l1.4-1.3c5.4-4.6,11.7-6.9,19-6.9v0h0h1.6h0.4h1h0h0.8h0.3h1l2,0.1l1,0.1v0.1c5.3,0.8,10.1,3,14.2,6.5
			l1.3,1.3C941.9,271.5,944.8,277.7,945.1,285 M935,298v2h-41v-2H935"/>
		<path class="st7" d="M935,298v-11.2V286h0v-0.2c-0.1-4.8-2-8.9-5.5-12.3c-2.5-2.4-5.4-4-8.6-4.8v-0.2l-1-0.1l-2-0.2h-1h-1h-1h-0.9
			H913h0v0c-5.2,0-9.7,1.8-13.5,5.4l0-0.1c-3.5,3.4-5.3,7.5-5.5,12.3v0.2H894v2V298v2h41V298 M945.1,286.6v5l0,0.3l0,0.3v0.7v17h-61
			v-24h0.1h0.2c0.5-6.7,3.3-12.5,8.3-17.4l1.5-1.4l2.8-2.1c4.7-3.1,10.1-4.7,16-4.7v0h0h2h0h1h1h1l2,0.1l1,0.1v0.1
			c4.1,0.6,7.8,2,11.3,4.3l2.8,2.2l1.5,1.3c5,4.8,7.8,10.4,8.5,16.9l0,0.5h0v2.4l0-1.4L945.1,286.6"/>
		<path class="st19" d="M894,288v-2h0.1v-0.2c0.1-4.8,1.9-8.9,5.5-12.3l0,0.1c3.8-3.6,8.3-5.4,13.5-5.4v0h0h1.1h0.9h1h1h1l2,0.2
			l1,0.1v0.2c3.2,0.8,6.1,2.4,8.6,4.8c3.5,3.4,5.4,7.5,5.5,12.3v0.2h0v0.9c-0.3-4.4-2.1-8.2-5.5-11.4c-2.5-2.4-5.4-4-8.6-4.8v-0.2
			l-1-0.1l-2-0.2h-1h-1h-1h-0.9H913h0v0c-5.2,0-9.7,1.8-13.5,5.4l0-0.1c-3.5,3.4-5.3,7.5-5.5,12.3L894,288L894,288"/>
		<path class="st20" d="M894,288L894,288l0.1-0.2c0.1-4.8,1.9-8.9,5.5-12.3l0,0.1c3.8-3.6,8.3-5.4,13.5-5.4v0h0h1.1h0.9h1h1h1l2,0.2
			l1,0.1v0.2c3.2,0.8,6.1,2.4,8.6,4.8c3.3,3.2,5.1,7,5.5,11.4V298h-41V288"/>
		<path class="st17" d="M945.1,286v0.3v0.4l0,0.4l0,1.4L945.1,286L945.1,286L945.1,286 M945.1,291.6v1.3H945v-0.7l0-0.3L945.1,291.6
			"/>
		<path class="st7" d="M894,286v-5h18v-17h5v17h18v5h-18v2v18.1h-5V288v-2H894"/>
		<path class="st21" d="M894,286h18v2h-18V286 M917,288v-2h18v2H917"/>
	</g>
	<g>
		<path class="st6" d="M804.1,189.6v-1.9c0.2-7.5,3-13.9,8.5-19.3l1.4-1.3c5.4-4.6,11.8-6.9,19.1-6.9l1.2,0h0.8h0.8h0.2h0h1
			c7,0.2,13,2.5,18.2,6.9l1.3,1.3c5.6,5.4,8.4,11.8,8.6,19.3v1.3c-0.4-7.1-3.2-13.2-8.6-18.4l-1.5-1.3l-2.8-2.2
			c-4.5-3-9.5-4.5-15.2-4.7h-1h-1l-2,0h0c-6,0-11.4,1.6-16.1,4.7l-2.8,2.1l-1.5,1.4c-5.3,5.2-8.1,11.3-8.4,18.4L804.1,189.6
			 M814,218.1h41v2h-41V218.1"/>
		<path class="st7" d="M814,218.1v2h41v-2V193h0v-3.2v-2c-0.1-4.8-2-8.9-5.5-12.3c-3.5-3.4-7.7-5.2-12.5-5.4h-1h-1l-2,0h0
			c-5.2,0-9.7,1.8-13.5,5.4l0-0.1c-3.5,3.4-5.3,7.6-5.5,12.4v2v3.2H814V218.1 M865.1,188.9v12.4l0,0.6l0,0.4v6V230h-61v-37h0.1v-3.4
			l0.1-0.6c0.3-7.1,3.1-13.2,8.4-18.4l1.5-1.4l2.8-2.1c4.7-3.1,10.1-4.7,16.1-4.7h0l2,0h1h1c5.7,0.1,10.7,1.7,15.2,4.7l2.8,2.2
			l1.5,1.3C861.9,175.7,864.7,181.8,865.1,188.9"/>
		<path class="st19" d="M855,189.8c-0.1-4.8-2-8.9-5.5-12.3c-3.5-3.4-7.7-5.2-12.5-5.4h-1h-1l-2,0h0c-5.2,0-9.7,1.8-13.5,5.4l0-0.1
			c-3.5,3.4-5.3,7.6-5.5,12.4v-2c0.1-4.8,1.9-8.9,5.5-12.4l0,0.1c3.8-3.6,8.3-5.4,13.5-5.4h0l2,0h1h1c4.9,0.2,9,1.9,12.5,5.4
			c3.5,3.4,5.4,7.5,5.5,12.3V189.8"/>
		<path class="st20" d="M855,189.8v3.2h0v25.1h-41V193h0.1v-3.2c0.1-4.8,1.9-8.9,5.5-12.4l0,0.1c3.8-3.6,8.3-5.4,13.5-5.4h0l2,0h1h1
			c4.9,0.2,9,1.9,12.5,5.4C853.1,180.9,854.9,185,855,189.8"/>
		<path class="st17" d="M865.1,201.4v1.9l-0.1,5.1v-6l0-0.4L865.1,201.4"/>
	</g>
	<g>
		<path class="st7" d="M865.1,286.6v5l0,0.3l0,0.3v0.7v17h-61v-24h0.1h0.2c0.5-6.7,3.3-12.5,8.3-17.4l1.5-1.4l2.8-2.1
			c4.7-3.1,10.1-4.7,16-4.7v0h0h2h0h1h1h1l2,0.1l1,0.1v0.1c4.1,0.6,7.8,2,11.3,4.3l2.8,2.2l1.5,1.3c5,4.8,7.8,10.4,8.5,16.9l0,0.5h0
			v2.4l0-1.4L865.1,286.6 M814,288V298v2h41v-2v-11.2V286h0v-0.2c-0.1-4.8-2-8.9-5.5-12.3c-2.5-2.4-5.4-4-8.6-4.8v-0.2l-1-0.1
			l-2-0.2h-1h-1h-1h-0.9H833h0v0c-5.2,0-9.7,1.8-13.5,5.4l0-0.1c-3.5,3.4-5.3,7.5-5.5,12.3v0.2H814V288"/>
		
			<linearGradient id="SVGID_3_" gradientUnits="userSpaceOnUse" x1="-819.2" y1="627.9518" x2="819.2" y2="627.9518" gradientTransform="matrix(0 2.673340e-02 3.167725e-02 0 814.6582 270.4)">
			<stop  offset="0" style="stop-color:#000000;stop-opacity:0"/>
			<stop  offset="1" style="stop-color:#000000;stop-opacity:0.302"/>
		</linearGradient>
		<path class="st23" d="M804,286v-8h0.1v-0.4c0.2-7.5,3-13.9,8.5-19.3l1.4-1.3c5.1-4.4,11.2-6.7,18-6.9v0h0.5h0h0.4h0h0.5l2.2,0h0.2
			h0h0.8h0.3h1l3,0.3v0.1c5.3,0.8,10.1,3,14.2,6.5l1.3,1.3c5.6,5.4,8.4,11.8,8.6,19.3v0.6v0.4v6.4c-0.3-7.2-3.2-13.5-8.6-18.7
			l-1.3-1.3c-4.1-3.5-8.9-5.7-14.2-6.5v-0.1l-1-0.1l-2-0.1h-1h-0.3H836h0h-1h-0.4H833h0v0c-7.3,0-13.6,2.3-19,6.9l-1.4,1.3
			c-5.5,5.4-8.3,11.8-8.5,19.3L804,286L804,286"/>
		<path class="st6" d="M865.1,285v0.6v0.4h0l0-0.5c-0.7-6.5-3.5-12.1-8.5-16.9l-1.5-1.3l-2.8-2.2c-3.4-2.3-7.2-3.7-11.3-4.3v-0.1
			l-1-0.1l-2-0.1h-1h-1h-1h0h-2h0v0c-6,0-11.3,1.6-16,4.7l-2.8,2.1l-1.5,1.4c-5,4.9-7.8,10.7-8.3,17.4h-0.2v-0.4
			c0.2-7.5,3-13.9,8.5-19.3l1.4-1.3c5.4-4.6,11.7-6.9,19-6.9v0h0h1.6h0.4h1h0h0.8h0.3h1l2,0.1l1,0.1v0.1c5.3,0.8,10.1,3,14.2,6.5
			l1.3,1.3C861.9,271.5,864.8,277.7,865.1,285 M814,298h41v2h-41V298"/>
		<path class="st19" d="M855,286.9c-0.3-4.4-2.1-8.2-5.5-11.4c-2.5-2.4-5.4-4-8.6-4.8v-0.2l-1-0.1l-2-0.2h-1h-1h-1h-0.9H833h0v0
			c-5.2,0-9.7,1.8-13.5,5.4l0-0.1c-3.5,3.4-5.3,7.5-5.5,12.3v0.2H814v-2h0.1v-0.2c0.1-4.8,1.9-8.9,5.5-12.3l0,0.1
			c3.8-3.6,8.3-5.4,13.5-5.4v0h0h1.1h0.9h1h1h1l2,0.2l1,0.1v0.2c3.2,0.8,6.1,2.4,8.6,4.8c3.5,3.4,5.4,7.5,5.5,12.3v0.2h0V286.9"/>
		<path class="st20" d="M855,286.9V298h-41V288h0.1v-0.2c0.1-4.8,1.9-8.9,5.5-12.3l0,0.1c3.8-3.6,8.3-5.4,13.5-5.4v0h0h1.1h0.9h1h1
			h1l2,0.2l1,0.1v0.2c3.2,0.8,6.1,2.4,8.6,4.8C852.9,278.7,854.7,282.5,855,286.9"/>
		<path class="st17" d="M865.1,286v0.3v0.4l0,0.4l0,1.4L865.1,286L865.1,286L865.1,286 M865.1,291.6v1.3H865v-0.7l0-0.3L865.1,291.6
			"/>
	</g>
	<path class="st13" d="M70,320v70H59v-70H70"/>
	<path class="st14" d="M59,330.5l11,10.8v25.2l-11-10.9V330.5 M59,368.6l11.1,10.9v10.2L59,378.8V368.6"/>
	<path class="st15" d="M59,241.9V240h11v1.9H59"/>
	<path class="st13" d="M59,241.9h11V310H59V241.9"/>
	<path class="st14" d="M59,250.4l11,10.8v25.2l-11-10.9V250.4 M59,298.8v-10.2l11.1,10.9v10.2L59,298.8"/>
	<path class="st13" d="M160,390v-70h11v70H160"/>
	<path class="st14" d="M160.1,389.7v-10.2h0.1l10.1-10l0.8-0.8v10.2L160.1,389.7 M160,341.3L160,341.3l10.2-10l0.8-0.8v25.2
		l-11,10.9V341.3"/>
	<path class="st15" d="M160,241.9V240h11v1.9H160"/>
	<path class="st13" d="M160,241.9h11V310h-11V241.9"/>
	<path class="st14" d="M160,261.3L160,261.3l10.2-10l0.8-0.8v25.2l-11,10.9V261.3 M160.1,299.5L160.1,299.5l10.2-10l0.8-0.8v10.2
		l-10.9,10.8V299.5"/>
	<path class="st24" d="M299,241.9V240h11v1.9H299"/>
	<path class="st25" d="M299,241.9h11V310h-11V241.9"/>
	<path class="st14" d="M310,261.3v25.2l-11-10.9v-25.2L310,261.3 M310,309.7l-11-10.9v-10.2l11,10.9V309.7"/>
	<path class="st25" d="M310,320v70h-11v-70H310"/>
	<path class="st14" d="M299,330.5l11,10.8v25.2l-11-10.9V330.5 M310,379.5v10.2l-11-10.9v-10.2L310,379.5"/>
	<path class="st24" d="M320,241.9V240h70v1.9H320"/>
	<path class="st25" d="M320,241.9h70V310h-70V241.9"/>
	<path class="st14" d="M343.4,286.5L331.6,275L320,286.5v-25.2h0l10.2-10l1.4-1.4l11.7,11.5l11.7-11.5l11.6,11.5l11.7-11.5
		l11.6,11.5v25.2L378.4,275l-11.7,11.5L355,275L343.4,286.5 M331.7,288l11.7,11.5l11.7-11.5l11.6,11.5l11.7-11.5l11.6,11.5v10.2
		l-11.6-11.5l-11.7,11.5l-11.6-11.5l-11.7,11.5l-11.7-11.5L320,309.7v-10.2h0.1l10.1-10L331.7,288"/>
	<path class="st25" d="M390,390h-70v-70h70V390"/>
	<path class="st14" d="M378.4,329.8l11.6,11.5v25.2L378.4,355l-11.7,11.5L355,355l-11.7,11.5L331.6,355L320,366.5v-25.2h0l10.2-10
		l1.4-1.5l11.7,11.5l11.7-11.5l11.6,11.5L378.4,329.8 M343.4,389.7l-11.7-11.5L320,389.7v-10.2h0.1l10.1-10l1.5-1.5l11.7,11.5
		l11.7-11.5l11.6,11.5l11.7-11.5l11.6,11.5v10.2l-11.6-11.5l-11.7,11.5l-11.6-11.5L343.4,389.7"/>
	<g>
		<path class="st26" d="M560,241.9V240h70v1.9H560"/>
		<path class="st27" d="M560,241.9h70V310h-70V241.9"/>
		<path class="st14" d="M595,275l-11.7,11.5L571.7,275L560,286.5v-25.2h0l10.2-10l1.5-1.4l11.7,11.5l11.7-11.5l11.6,11.5l11.7-11.5
			l11.7,11.5v25.2L618.3,275l-11.7,11.5L595,275 M571.7,288l11.7,11.5l11.7-11.5l11.6,11.5l11.7-11.5l11.6,11.5v10.2l-11.6-11.5
			l-11.7,11.5l-11.6-11.5l-11.7,11.5l-11.7-11.5L560,309.7v-10.2h0l10.2-10L571.7,288"/>
	</g>
	<path class="st26" d="M640,241.9V240h11v1.9H640"/>
	<path class="st27" d="M640,241.9h11V310h-11V241.9"/>
	<path class="st14" d="M651,250.4v25.2l-11,10.9v-25.2h0l10.2-10L651,250.4 M651,288.7v10.2l-11,10.8v-10.2h0l10.2-10L651,288.7"/>
	<path class="st26" d="M550,241.9h-11V240h11V241.9"/>
	<path class="st27" d="M550,241.9V310h-11v-68.1H550"/>
	<path class="st14" d="M550,286.5l-11-10.9v-25.2l11,10.8V286.5 M539,298.8v-10.2l11,10.9v10.2L539,298.8"/>
	<path class="st27" d="M550,320v70h-11v-70H550"/>
	<path class="st14" d="M539,330.5l11,10.8v25.2l-11-10.9V330.5 M550,389.7l-11-10.9v-10.2l11,10.9V389.7"/>
	<g>
		<path class="st27" d="M560,320h70v70h-70V320"/>
		<path class="st14" d="M560,341.3l10.2-10l1.5-1.5l11.7,11.5l11.7-11.5l11.6,11.5l11.7-11.5l11.7,11.5v25.2L618.3,355l-11.7,11.5
			L595,355l-11.7,11.5L571.7,355L560,366.5L560,341.3L560,341.3 M560,379.5L560,379.5l10.2-10l1.5-1.5l11.7,11.5l11.7-11.5
			l11.6,11.5l11.7-11.5l11.6,11.5v10.2l-11.6-11.5l-11.7,11.5l-11.6-11.5l-11.7,11.5l-11.7-11.5L560,389.7V379.5"/>
	</g>
	<path class="st27" d="M651,320v70h-11v-70H651"/>
	<path class="st14" d="M651,368.7v10.2l-11,10.8v-10.2h0l10.2-10L651,368.7 M650.2,331.3l0.8-0.8v25.2l-11,10.9v-25.2h0L650.2,331.3
		"/>
	<path class="st24" d="M400,241.9V240h11v1.9H400"/>
	<path class="st25" d="M400,241.9h11V310h-11V241.9"/>
	<path class="st14" d="M411,275.6l-11,10.9v-25.2h0l10.2-10l0.8-0.8V275.6 M411,288.7v10.2l-11,10.8v-10.2h0.1l10.1-10L411,288.7"/>
	<path class="st25" d="M400,390v-70h11v70H400"/>
	<path class="st14" d="M400,389.7v-10.2h0.1l10.1-10l0.8-0.8v10.2L400,389.7 M400,341.3L400,341.3l10.2-10l0.8-0.8v25.2l-11,10.9
		V341.3"/>
	<path class="st28" d="M53,400h17v51.2c-0.1,2.3-0.9,4.3-2.6,5.9c-1.7,1.7-3.8,2.6-6.2,2.6c-2.4,0-4.5-0.9-6.2-2.6
		c-1.2-1.2-1.9-2.5-2.3-3.9l0.3-2V400 M18,400h17v51.4c0,2.2-0.9,4.1-2.6,5.8c-1.7,1.7-3.8,2.6-6.2,2.6c-2.4,0-4.5-0.9-6.2-2.6
		c-1.2-1.2-1.9-2.5-2.3-3.9l0.3-2V400"/>
	<path class="st29" d="M18,400v51.2l-0.3,2c-0.4,1.4-1.2,2.7-2.4,3.9c-1.8,1.7-3.9,2.6-6.4,2.6c-2.5,0-4.6-0.9-6.4-2.6
		c-1.7-1.6-2.5-3.6-2.6-5.9V400H18 M53,400v51.2l-0.3,2c-0.4,1.4-1.2,2.7-2.4,3.9c-1.8,1.7-3.9,2.6-6.3,2.6c-2.5,0-4.6-0.9-6.4-2.6
		c-1.7-1.7-2.6-3.6-2.6-5.8V400H53"/>
	<path class="st21" d="M52.8,453.2c0.4,1.4,1.1,2.7,2.3,3.9c1.7,1.7,3.8,2.6,6.2,2.6c2.4,0,4.5-0.9,6.2-2.6c1.7-1.6,2.5-3.6,2.6-5.9
		v1.8c0,2.4-0.9,4.4-2.6,6.1c-1.7,1.7-3.8,2.6-6.2,2.6c-2.4,0-4.5-0.9-6.2-2.6c-1.2-1.2-1.9-2.5-2.3-3.9c-0.4,1.4-1.2,2.7-2.4,3.9
		c-1.8,1.7-3.9,2.6-6.3,2.6c-2.5,0-4.6-0.9-6.4-2.6c-1.7-1.7-2.6-3.5-2.6-5.6c0,2.1-0.9,3.9-2.6,5.6c-1.7,1.7-3.8,2.6-6.2,2.6
		c-2.4,0-4.5-0.9-6.2-2.6c-1.2-1.2-1.9-2.5-2.3-3.9c-0.4,1.4-1.2,2.7-2.4,3.9c-1.8,1.7-3.9,2.6-6.4,2.6c-2.5,0-4.6-0.9-6.4-2.6
		c-1.7-1.6-2.5-3.6-2.6-5.9v-2c0.1,2.3,0.9,4.2,2.6,5.9c1.8,1.7,3.9,2.6,6.4,2.6c2.5,0,4.6-0.9,6.4-2.6c1.2-1.2,2-2.5,2.4-3.9
		c0.4,1.4,1.1,2.7,2.3,3.9c1.7,1.7,3.8,2.6,6.2,2.6c2.4,0,4.5-0.9,6.2-2.6c1.7-1.7,2.6-3.6,2.6-5.8c0,2.2,0.9,4.1,2.6,5.8
		c1.8,1.7,3.9,2.6,6.4,2.6c2.5,0,4.6-0.9,6.3-2.6C51.5,455.9,52.4,454.6,52.8,453.2"/>
	<path class="st30" d="M70,400v2H0v-2H70"/>
	<path class="st28" d="M213,400h17v51.2c-0.1,2.3-0.9,4.3-2.6,5.9c-1.7,1.7-3.7,2.6-6.1,2.6c-2.4,0-4.5-0.9-6.2-2.6
		c-1.2-1.2-1.9-2.5-2.3-3.9l0.3-2V400 M178,400h17v51.5c0,2.1-0.9,4-2.6,5.6c-1.7,1.7-3.7,2.6-6.1,2.6c-2.4,0-4.5-0.9-6.2-2.6
		c-1.2-1.2-1.9-2.5-2.3-3.9l0.3-2V400"/>
	<path class="st21" d="M212.8,453.2c0.4,1.4,1.1,2.7,2.3,3.9c1.7,1.7,3.8,2.6,6.2,2.6c2.4,0,4.4-0.9,6.1-2.6
		c1.7-1.6,2.5-3.6,2.6-5.9v1.8c0,2.4-0.9,4.4-2.6,6.1c-1.7,1.7-3.7,2.6-6.1,2.6c-2.4,0-4.5-0.9-6.2-2.6c-1.2-1.2-1.9-2.5-2.3-3.9
		c-0.4,1.4-1.2,2.7-2.4,3.9c-1.8,1.7-3.9,2.6-6.4,2.6c-2.5,0-4.6-0.9-6.4-2.6c-1.7-1.7-2.6-3.5-2.6-5.5c0,2-0.9,3.8-2.6,5.5
		c-1.7,1.7-3.7,2.6-6.1,2.6c-2.4,0-4.5-0.9-6.2-2.6c-1.2-1.2-1.9-2.5-2.3-3.9c-0.4,1.4-1.2,2.7-2.4,3.9c-1.8,1.7-3.9,2.6-6.4,2.6
		c-2.5,0-4.6-0.9-6.4-2.6c-1.7-1.6-2.5-3.6-2.6-5.9v-2c0.1,2.3,0.9,4.2,2.6,5.9c1.8,1.7,3.9,2.6,6.4,2.6c2.5,0,4.6-0.9,6.4-2.6
		c1.2-1.2,2-2.5,2.4-3.9c0.4,1.4,1.1,2.7,2.3,3.9c1.7,1.7,3.8,2.6,6.2,2.6c2.4,0,4.4-0.9,6.1-2.6c1.7-1.7,2.6-3.5,2.6-5.6
		c0,2.1,0.9,4,2.6,5.6c1.8,1.7,3.9,2.6,6.4,2.6c2.5,0,4.6-0.9,6.4-2.6C211.6,455.9,212.3,454.6,212.8,453.2"/>
	<path class="st31" d="M212.8,453.2c-0.4,1.4-1.2,2.7-2.4,3.9c-1.8,1.7-3.9,2.6-6.4,2.6c-2.5,0-4.6-0.9-6.4-2.6
		c-1.7-1.7-2.6-3.5-2.6-5.6V400h18v51.2L212.8,453.2 M160,451.3V400h18v51.2l-0.3,2c-0.4,1.4-1.2,2.7-2.4,3.9
		c-1.8,1.7-3.9,2.6-6.4,2.6c-2.5,0-4.6-0.9-6.4-2.6C160.9,455.5,160.1,453.5,160,451.3"/>
	<path class="st30" d="M230,400v2h-70v-2H230"/>
	<path class="st31" d="M133,400h17v51.2c-0.1,2.3-0.9,4.3-2.6,5.9c-1.7,1.7-3.7,2.6-6.1,2.6c-2.4,0-4.5-0.9-6.2-2.6
		c-1.2-1.2-1.9-2.5-2.3-3.9l0.3-2V400 M98,400h17v51.4c0,2.1-0.9,4-2.6,5.7c-1.7,1.7-3.8,2.6-6.2,2.6c-2.4,0-4.5-0.9-6.2-2.6
		c-1.2-1.2-1.9-2.5-2.3-3.9l0.3-2V400"/>
	<path class="st29" d="M98,400v51.2l-0.3,2c-0.4,1.4-1.2,2.7-2.4,3.9c-1.8,1.7-3.9,2.6-6.3,2.6c-2.5,0-4.6-0.9-6.4-2.6
		c-1.7-1.6-2.5-3.6-2.6-5.9V400H98 M133,400v51.2l-0.3,2c-0.4,1.4-1.2,2.7-2.4,3.9c-1.8,1.7-3.9,2.6-6.4,2.6c-2.5,0-4.6-0.9-6.4-2.6
		c-1.7-1.7-2.6-3.6-2.6-5.7V400H133"/>
	<path class="st21" d="M132.8,453.2c0.4,1.4,1.1,2.7,2.3,3.9c1.7,1.7,3.8,2.6,6.2,2.6c2.4,0,4.4-0.9,6.1-2.6
		c1.7-1.6,2.5-3.6,2.6-5.9v1.8c0,2.4-0.9,4.4-2.6,6.1c-1.7,1.7-3.7,2.6-6.1,2.6c-2.4,0-4.5-0.9-6.2-2.6c-1.2-1.2-1.9-2.5-2.3-3.9
		c-0.4,1.4-1.2,2.7-2.4,3.9c-1.8,1.7-3.9,2.6-6.4,2.6c-2.5,0-4.6-0.9-6.4-2.6c-1.7-1.7-2.6-3.5-2.6-5.6c0,2-0.9,3.9-2.6,5.6
		c-1.7,1.7-3.8,2.6-6.2,2.6c-2.4,0-4.5-0.9-6.2-2.6c-1.2-1.2-1.9-2.5-2.3-3.9c-0.4,1.4-1.2,2.7-2.4,3.9c-1.8,1.7-3.9,2.6-6.3,2.6
		c-2.5,0-4.6-0.9-6.4-2.6c-1.7-1.6-2.5-3.6-2.6-5.9v-2c0.1,2.3,0.9,4.2,2.6,5.9c1.8,1.7,3.9,2.6,6.4,2.6c2.5,0,4.6-0.9,6.3-2.6
		c1.2-1.2,2-2.5,2.4-3.9c0.4,1.4,1.1,2.7,2.3,3.9c1.7,1.7,3.8,2.6,6.2,2.6c2.4,0,4.5-0.9,6.2-2.6c1.7-1.7,2.6-3.6,2.6-5.7
		c0,2.1,0.9,4,2.6,5.7c1.8,1.7,3.9,2.6,6.4,2.6c2.5,0,4.6-0.9,6.4-2.6C131.6,455.9,132.3,454.6,132.8,453.2"/>
	<path class="st30" d="M150,400v2H80v-2H150"/>
	<g>
		<path class="st7" d="M1020,80h10v65.6l-0.1,4.4h-9.9V80 M970,150h-10l0-3.8V80h10V150"/>
		<path class="st32" d="M1015,109.2c0,1.6-0.6,3-1.8,4.1c-1.2,1.2-2.6,1.8-4.3,1.8c-1.7,0-3.1-0.6-4.3-1.8c-1.1-1.1-1.7-2.5-1.8-4.1
			v-0.3c0-1.6,0.6-2.9,1.8-4c1.1-1.2,2.5-1.8,4.2-1.8h0.3c1.6,0,2.9,0.6,4.1,1.8c1.1,1.1,1.7,2.5,1.8,4V109.2"/>
		<path class="st4" d="M1015,109.2v11c0,1.2-0.7,1.8-2,1.8h-8.1c-1.3,0-1.9-0.6-2-1.8v-11c0,1.6,0.6,3,1.8,4.1
			c1.2,1.2,2.6,1.8,4.3,1.8c1.6,0,3-0.6,4.3-1.8C1014.4,112.1,1015,110.8,1015,109.2 M1015,108.8c0-1.6-0.6-2.9-1.8-4
			c-1.2-1.2-2.5-1.8-4.1-1.8h-0.3c-1.6,0-3,0.6-4.2,1.8c-1.1,1.1-1.7,2.5-1.8,4V103c0-1.3,0.6-2,2-2h8.1c1.3,0,2,0.7,2,2V108.8"/>
		<path class="st10" d="M1015,108.8V103c0-1.3-0.6-2-2-2h-8.1c-1.3,0-2,0.7-2,2v5.8v0.3v11v1.8c0,1.3,0.6,2,2,2h8.1c1.3,0,2-0.7,2-2
			v-1.8v-11V108.8 M1020,80v70h-50V80H1020"/>
		<path class="st33" d="M1003,120.2c0,1.2,0.7,1.8,2,1.8h8.1c1.3,0,1.9-0.6,2-1.8v1.8c0,1.3-0.6,2-2,2h-8.1c-1.3,0-2-0.7-2-2V120.2"
			/>
	</g>
	<g>
		<path class="st6" d="M1029.9,59.8c-0.1-7.5-3-14-8.6-19.4c-5.4-5.2-11.9-8-19.5-8.2l-12.9,0c-8,0-14.8,2.7-20.5,8.2
			c-5.5,5.4-8.3,11.9-8.5,19.4v-1.7c0-7.8,2.8-14.4,8.5-20c5.7-5.5,12.5-8.2,20.5-8.2l12.9,0c7.6,0.2,14.1,2.9,19.5,8.2
			c5.7,5.5,8.6,12.2,8.6,20V59.8"/>
		<path class="st7" d="M1029.9,59.8v8.5l-0.1,1.7h-9.9v-9.8v-2c0-5-1.9-9.2-5.5-12.8c-3.5-3.4-7.7-5.2-12.6-5.4l-12.9,0
			c-5.3,0-9.8,1.8-13.6,5.5l0.1-0.1c-3.6,3.5-5.5,7.8-5.5,12.8v1.7V70h-10l0-1.4v-8.7c0.1-7.5,3-14,8.5-19.4
			c5.7-5.5,12.5-8.2,20.5-8.2l12.9,0c7.6,0.2,14.1,2.9,19.5,8.2C1027,45.9,1029.8,52.3,1029.9,59.8"/>
		<path class="st9" d="M970,59.8v-1.7c0-5,1.8-9.3,5.5-12.8l-0.1,0.1c3.8-3.6,8.3-5.5,13.6-5.5l12.9,0c4.9,0.2,9.1,2,12.6,5.4
			c3.6,3.5,5.5,7.8,5.5,12.8v2c-0.1-4.9-1.9-9-5.5-12.5c-3.5-3.4-7.7-5.2-12.6-5.4l-12.9,0c-5.3,0-9.8,1.8-13.6,5.5l0.1-0.1
			C971.9,51,970.1,55.1,970,59.8"/>
		<path class="st10" d="M970,59.8c0.1-4.8,2-8.8,5.5-12.3l-0.1,0.1c3.8-3.6,8.3-5.5,13.6-5.5l12.9,0c4.9,0.2,9.1,2,12.6,5.4
			c3.6,3.5,5.4,7.6,5.5,12.5V70h-10v-6v-1v-1.2V60c-0.2-2-1-3.7-2.5-5.2c-1.7-1.6-3.7-2.5-6-2.5l-12.6,0c-2.6,0-4.8,0.9-6.6,2.7
			l-0.3,0.3c-1.2,1.4-1.9,3-2,4.8v2v8h-10V59.8"/>
		<path class="st19" d="M980,62v-2c0.1-1.8,0.8-3.4,2-4.8l0.3-0.3c1.8-1.8,4-2.7,6.6-2.7l12.6,0c2.3,0.1,4.3,0.9,6,2.5
			c1.5,1.4,2.3,3.2,2.5,5.2v1.8c-0.2-1.9-1-3.6-2.5-5c-1.7-1.6-3.7-2.5-6-2.5l-12.6,0c-2.6,0-4.8,0.9-6.6,2.7l-0.3,0.3
			C980.7,58.6,980,60.2,980,62"/>
		<path class="st20" d="M980,62c0.1-1.8,0.8-3.4,2-4.8l0.3-0.3c1.8-1.8,4-2.7,6.6-2.7l12.6,0c2.3,0.1,4.3,0.9,6,2.5
			c1.4,1.4,2.2,3,2.5,5V63v1v6h-30V62"/>
	</g>
	<path class="st17" d="M865,400L865,400l0.1,10.5l0,5.7L865,400"/>
	<path class="st7" d="M865,400l0,16.2V470h-10v-70H865 M814,470h-10v-70h10V470"/>
	<path class="st20" d="M814,470v-70h41v70H814"/>
	<path class="st7" d="M804.1,386.5l0.1-0.5c0.3-7.1,3.1-13.2,8.4-18.4l1.5-1.4l2.8-2.1c4.7-3.1,10.1-4.7,16.1-4.7h0l2,0h1h1
		c5.7,0.1,10.7,1.7,15.2,4.6l2.8,2.2l1.5,1.3c5.4,5.2,8.2,11.3,8.6,18.4v4h-10v-3.2v-2c-0.1-4.8-2-8.9-5.5-12.3
		c-3.5-3.4-7.7-5.2-12.5-5.4h-1h-1l-2,0h0c-5.2,0-9.7,1.8-13.5,5.4l0-0.1c-3.5,3.4-5.3,7.5-5.5,12.3v2v3.2h-10V386.5"/>
	<path class="st6" d="M804.1,386.5v-1.9c0.2-7.5,3-13.9,8.5-19.3l1.4-1.3c5.4-4.6,11.8-6.9,19.1-6.9l1.2,0h0.8h0.8h0.2h0h1
		c7,0.2,13,2.5,18.2,6.9l1.3,1.3c5.6,5.4,8.4,11.8,8.6,19.3v1.4c-0.4-7.1-3.2-13.2-8.6-18.4l-1.5-1.3l-2.8-2.2
		c-4.5-3-9.5-4.5-15.2-4.6h-1h-1l-2,0h0c-6,0-11.4,1.6-16.1,4.7l-2.8,2.1l-1.5,1.4c-5.3,5.2-8.1,11.3-8.4,18.4L804.1,386.5"/>
	<path class="st19" d="M814.1,386.8v-2c0.1-4.8,1.9-8.9,5.5-12.3l0,0.1c3.8-3.6,8.3-5.4,13.5-5.4h0l2,0h1h1c4.9,0.2,9,2,12.5,5.4
		c3.5,3.4,5.4,7.5,5.5,12.3v2c-0.1-4.8-2-8.9-5.5-12.3c-3.5-3.4-7.7-5.2-12.5-5.4h-1h-1l-2,0h0c-5.2,0-9.7,1.8-13.5,5.4l0-0.1
		C816,377.9,814.2,382,814.1,386.8"/>
	<path class="st20" d="M814.1,386.8c0.1-4.8,1.9-8.9,5.5-12.3l0,0.1c3.8-3.6,8.3-5.4,13.5-5.4h0l2,0h1h1c4.9,0.2,9,2,12.5,5.4
		c3.5,3.4,5.4,7.5,5.5,12.3v3.2h-41V386.8"/>
	<g>
		<path class="st17" d="M945,400L945,400l0.1,10.5l0,5.7L945,400"/>
		<path class="st7" d="M945,400l0,16.2V470h-10v-70H945 M894,470h-10v-70h10V470"/>
		<path class="st20" d="M894,470v-70h41v70H894"/>
		<path class="st7" d="M917,430v40.1h-5V430v-2h-18v-5h18v-23h5v23h18v5h-18V430"/>
		<path class="st21" d="M917,430v-2h18v2H917 M912,430h-18v-2h18V430"/>
	</g>
	<path class="st7" d="M884.1,386.4l0.1-0.4c0.3-7.1,3.1-13.2,8.4-18.4l1.5-1.4l2.8-2.1c4.7-3.1,10.1-4.7,16.1-4.7h0l2,0h1h1
		c5.7,0.1,10.7,1.7,15.2,4.6l2.8,2.2l1.5,1.3c5.4,5.2,8.2,11.3,8.6,18.4v4h-10v-3.2v-2c-0.1-4.8-2-8.9-5.5-12.3
		c-3.5-3.4-7.7-5.2-12.5-5.4h-1h-1l-2,0h0c-5.2,0-9.7,1.8-13.5,5.4l0-0.1c-3.5,3.4-5.3,7.5-5.5,12.3v2v3.2h-10V386.4"/>
	<path class="st6" d="M884.1,386.4v-1.8c0.2-7.5,3-13.9,8.5-19.3l1.4-1.3c5.4-4.6,11.8-6.9,19.1-6.9l1.2,0h0.8h0.8h0.2h0h1
		c7,0.2,13,2.5,18.2,6.9l1.3,1.3c5.6,5.4,8.4,11.8,8.6,19.3v1.4c-0.4-7.1-3.2-13.2-8.6-18.4l-1.5-1.3l-2.8-2.2
		c-4.5-3-9.5-4.5-15.2-4.6h-1h-1l-2,0h0c-6,0-11.4,1.6-16.1,4.7l-2.8,2.1l-1.5,1.4c-5.3,5.2-8.1,11.3-8.4,18.4L884.1,386.4"/>
	<path class="st19" d="M894.1,386.8v-2c0.1-4.8,1.9-8.9,5.5-12.3l0,0.1c3.8-3.6,8.3-5.4,13.5-5.4h0l2,0h1h1c4.9,0.2,9,2,12.5,5.4
		c3.5,3.4,5.4,7.5,5.5,12.3v2c-0.1-4.8-2-8.9-5.5-12.3c-3.5-3.4-7.7-5.2-12.5-5.4h-1h-1l-2,0h0c-5.2,0-9.7,1.8-13.5,5.4l0-0.1
		C896,377.9,894.2,382,894.1,386.8"/>
	<path class="st20" d="M894.1,386.8c0.1-4.8,1.9-8.9,5.5-12.3l0,0.1c3.8-3.6,8.3-5.4,13.5-5.4h0l2,0h1h1c4.9,0.2,9,2,12.5,5.4
		c3.5,3.4,5.4,7.5,5.5,12.3v3.2h-41V386.8"/>
	<path class="st7" d="M912,360h5v30h-5V360"/>
	<path class="st6" d="M964.1,386.4v-1.8c0.2-7.5,3-13.9,8.5-19.3l1.4-1.3c5.4-4.6,11.8-6.9,19.1-6.9l1.2,0h0.8h0.8h0.2h0h1
		c7,0.2,13,2.5,18.2,6.9l1.3,1.3c5.6,5.4,8.4,11.8,8.6,19.3v1.4c-0.4-7.1-3.2-13.2-8.6-18.4l-1.5-1.3l-2.8-2.2
		c-4.5-3-9.5-4.5-15.2-4.6h-1h-1l-2,0h0c-6,0-11.4,1.6-16.1,4.7l-2.8,2.1l-1.5,1.4c-5.3,5.2-8.1,11.3-8.4,18.4L964.1,386.4"/>
	<path class="st7" d="M964.1,386.4l0.1-0.4c0.3-7.1,3.1-13.2,8.4-18.4l1.5-1.4l2.8-2.1c4.7-3.1,10.1-4.7,16.1-4.7h0l2,0h1h1
		c5.7,0.1,10.7,1.7,15.2,4.6l2.8,2.2l1.5,1.3c5.4,5.2,8.2,11.3,8.6,18.4v4h-10v-3.2v-2c-0.1-4.8-2-8.9-5.5-12.3
		c-3.5-3.4-7.7-5.2-12.5-5.4h-1h-1l-2,0h0c-5.2,0-9.7,1.8-13.5,5.4l0-0.1c-3.5,3.4-5.3,7.5-5.5,12.3v2v3.2h-10V386.4"/>
	<path class="st16" d="M1015,386.8c-0.1-4.8-2-8.9-5.5-12.3c-3.5-3.4-7.7-5.2-12.5-5.4h-1h-1l-2,0h0c-5.2,0-9.7,1.8-13.5,5.4l0-0.1
		c-3.5,3.4-5.3,7.5-5.5,12.3v-2c0.1-4.8,1.9-8.9,5.5-12.3l0,0.1c3.8-3.6,8.3-5.4,13.5-5.4h0l2,0h1h1c4.9,0.2,9,2,12.5,5.4
		c3.5,3.4,5.4,7.5,5.5,12.3V386.8"/>
	<path class="st11" d="M1015,386.8v3.2h-41v-3.2c0.1-4.8,1.9-8.9,5.5-12.3l0,0.1c3.8-3.6,8.3-5.4,13.5-5.4h0l2,0h1h1
		c4.9,0.2,9,2,12.5,5.4C1013.1,377.9,1014.9,382,1015,386.8"/>
	<g>
		<path class="st7" d="M974,470h-10v-70h10V470 M1015,400h10l0.1,16.2V470H1015V400"/>
		<path class="st17" d="M1025,400L1025,400l0.1,10.5l0,5.7L1025,400"/>
		<path class="st11" d="M974,400h41v70h-41V400"/>
	</g>
	<g>
		<path class="st7" d="M1025.1,490.5v43.5h-0.1V550h-61v-70h10v58v2h41v-2v-58h10L1025.1,490.5"/>
		<path class="st17" d="M1025.1,490.5L1025,480h0.1v3.3L1025.1,490.5"/>
		<path class="st11" d="M974,480h41v58h-41V480"/>
		<path class="st6" d="M1015,538v2h-41v-2H1015"/>
	</g>
	<g>
		<path class="st7" d="M945,480l0,10.5v43.5h0V550h-61v-70h10v58v2h41v-2v-58H945"/>
		<path class="st17" d="M945,480L945,480l0.1,3.3l0,7.2L945,480"/>
		<path class="st20" d="M935,480v58h-41v-58H935"/>
		<path class="st6" d="M935,538v2h-41v-2H935"/>
		<path class="st7" d="M894,510v-5h18v-25h5v25h18v5h-18v2v30.2h-5V512v-2H894"/>
		<path class="st21" d="M894,510h18v2h-18V510 M917,512v-2h18v2H917"/>
	</g>
	<g>
		<path class="st7" d="M1044.1,386.4l0.1-0.4c0.3-7.1,3.1-13.2,8.4-18.4l1.5-1.3l0-0.1l2.8-2.1c4.5-2.9,9.5-4.5,15-4.6l1.1,0h0.1
			l1.5,0h0.4h1h1h0.2c5.6,0.2,10.6,1.7,15,4.6l2.9,2.2l1.4,1.3c5.4,5.2,8.2,11.3,8.6,18.4v4h-10v-3.2v-2c-0.1-4.8-2-8.9-5.5-12.3
			c-2.2-2.1-4.6-3.6-7.3-4.5c-1.7-0.5-3.4-0.8-5.3-0.9h-1h-1h-0.4l-1.5,0h-0.1c-2.2,0-4.2,0.3-6.1,0.9c-2.7,0.9-5.2,2.4-7.4,4.5
			l0.1-0.1c-3.5,3.4-5.3,7.5-5.5,12.3v2v3.1v0.1h-10V386.4"/>
		<path class="st6" d="M1044.1,386.4v-1.8c0.2-7.5,3-13.9,8.5-19.3l1.4-1.3l0.1,0c5.4-4.6,11.7-6.9,19-6.9h0.3l0.9,0h0.3h0.4h0.8
			h0.1h0.1h0.1h1c6.9,0.2,13,2.5,18.1,6.9l0.1,0l1.3,1.3c5.6,5.4,8.4,11.8,8.6,19.3v1.4c-0.4-7.1-3.2-13.2-8.6-18.4l-1.4-1.3
			l-2.9-2.2c-4.4-2.9-9.4-4.5-15-4.6h-0.2h-1h-1h-0.4l-1.5,0h-0.1l-1.1,0c-5.6,0.2-10.6,1.7-15,4.6l-2.8,2.1l0,0.1l-1.5,1.3
			c-5.3,5.2-8.1,11.3-8.4,18.4L1044.1,386.4"/>
		<path class="st34" d="M1074.6,367.1h0.4h1h1c1.8,0.1,3.6,0.4,5.3,0.9l1.5,2.6c-2.1-0.9-4.3-1.4-6.8-1.5h-1h-1h-0.4V367.1"/>
		<path class="st35" d="M1074.6,367.1v2l-1.5,0h-0.1c-2.7,0-5.3,0.5-7.6,1.5l1.5-2.6c1.9-0.6,3.9-0.9,6.1-0.9h0.1L1074.6,367.1"/>
		<path class="st36" d="M1095.1,390h-20.5v-20.8h0.4h1h1c2.4,0.1,4.7,0.5,6.8,1.5L1095.1,390"/>
		<path class="st37" d="M1083.8,370.6l-1.5-2.6c2.7,0.9,5.1,2.4,7.3,4.5c3.5,3.4,5.4,7.5,5.5,12.3v2c-0.1-4.8-2-8.9-5.5-12.3
			C1087.8,372.8,1085.8,371.5,1083.8,370.6"/>
		<path class="st29" d="M1074.6,390h-20.5v-0.1l11.3-19.3c2.3-1,4.9-1.5,7.6-1.5h0.1l1.5,0V390"/>
		<path class="st38" d="M1066.9,368l-1.5,2.6c-2.1,0.9-4.1,2.2-5.9,3.9l0.1-0.1c-3.5,3.4-5.3,7.5-5.5,12.3v-2
			c0.1-4.8,1.9-8.9,5.5-12.3l-0.1,0.1C1061.7,370.4,1064.2,368.9,1066.9,368"/>
		<path class="st31" d="M1054.1,386.8c0.1-4.8,1.9-8.9,5.5-12.3l-0.1,0.1c1.8-1.7,3.8-3,5.9-3.9l-11.3,19.3V386.8"/>
		<path class="st39" d="M1095.1,386.8v3.2l-11.3-19.4c2.1,0.9,4,2.2,5.8,3.9C1093.1,377.9,1094.9,382,1095.1,386.8"/>
	</g>
	<g>
		<path class="st17" d="M1105,416.2l-0.1-16.2h0.1v10.5L1105,416.2"/>
		<path class="st7" d="M1105,416.2V470h-10.1v-35v-35h10L1105,416.2 M1053.9,400v35v35h-10v-70H1053.9"/>
		<path class="st31" d="M1094.9,400v35h-20.5L1094.9,400 M1053.9,435h20.5l-20.5,35V435"/>
		<path class="st29" d="M1074.4,400v35l-20.5-35H1074.4 M1074.4,470h-20.5l20.5-35V470"/>
		<path class="st36" d="M1074.4,470v-35v-35h20.5l-20.5,35l20.5,35H1074.4"/>
		<path class="st39" d="M1074.4,435h20.5v35L1074.4,435h-20.5v-35L1074.4,435"/>
	</g>
	<g>
		<path class="st29" d="M1054,480h20.5v35L1054,480 M1074.5,538H1061l13.5-23V538"/>
		<path class="st7" d="M1095,480h10v70h-61v-16.1h-0.1v-43.5l0.1-10.5h10v35v23v2h41v-2v-23V480"/>
		<path class="st36" d="M1095,480l-20.5,35v-35H1095 M1088,538h-13.5v-23L1088,538"/>
		<path class="st17" d="M1043.9,490.5l0-7.2V480h0.1L1043.9,490.5"/>
		<path class="st6" d="M1095,538v2h-41v-2h7h13.5h13.5H1095"/>
		<path class="st31" d="M1095,538h-7l-13.5-23H1054v-35l20.5,35h20.5V538"/>
		<path class="st39" d="M1054,515h20.5l20.5-35v35h-20.5l-13.5,23h-7V515"/>
	</g>
	<g>
		
			<linearGradient id="SVGID_4_" gradientUnits="userSpaceOnUse" x1="-819.2" y1="627.9518" x2="819.2" y2="627.9518" gradientTransform="matrix(0 2.673340e-02 3.167725e-02 0 1054.6582 270.4)">
			<stop  offset="0" style="stop-color:#000000;stop-opacity:0"/>
			<stop  offset="1" style="stop-color:#000000;stop-opacity:0.302"/>
		</linearGradient>
		<path class="st40" d="M1044,286v-8h0.1v-0.4c0.2-7.5,3-13.9,8.5-19.3l1.4-1.3l0.1,0c3.9-3.3,8.3-5.4,13.3-6.4l4.8-0.5v0h0.5h0.1
			h0.4h0.1h0.6l2.2,0h0.2h0.1h0.8h0.3h1l2.9,0.3v0.1l0.9,0.1c4.9,0.9,9.3,3,13.2,6.3l0.2,0.1l1.3,1.3c5.6,5.4,8.4,11.8,8.6,19.3v0.6
			v0.4v6.4c-0.3-7.2-3.2-13.5-8.6-18.7l-1.3-1.3l-0.2-0.1l-2.4-1.9c-3.5-2.4-7.4-3.9-11.6-4.5v-0.1l-1-0.1l-1.9-0.1h-0.6h-0.4h-0.3
			h-0.8h-0.1h-1h-0.3h-0.1h-1.5h-0.1v0l-1.3,0c-5.6,0.2-10.7,1.9-15.1,4.9l-2.6,2l-0.1,0l-1.4,1.3c-5.5,5.4-8.3,11.8-8.5,19.3
			L1044,286L1044,286"/>
		<path class="st6" d="M1044.1,286v-0.4c0.2-7.5,3-13.9,8.5-19.3l1.4-1.3l0.1,0l2.6-2c4.4-3,9.5-4.7,15.1-4.9l1.3,0v0h0.1h1.5h0.1
			h0.3h1h0.1h0.8h0.3h0.4h0.6l1.9,0.1l1,0.1v0.1c4.2,0.7,8.1,2.2,11.6,4.5l2.4,1.9l0.2,0.1l1.3,1.3c5.4,5.2,8.3,11.4,8.6,18.7v0.6
			v0.4h0l-0.1-0.5c-0.7-6.5-3.5-12.1-8.5-16.9l-1.4-1.3l-0.1,0l-2.8-2.2c-1.1-0.8-2.3-1.4-3.5-2c-2.4-1.1-5-1.9-7.7-2.3v-0.1l-1-0.1
			l-1.9-0.1h-1h-1.1h-0.9h-0.1h-0.4h-1.5h-0.1v0c-4.5,0-8.7,0.9-12.5,2.7c-1.2,0.6-2.4,1.2-3.5,2l-2.8,2.1l-0.1,0.1l-1.4,1.3
			c-5,4.9-7.8,10.7-8.3,17.4H1044.1 M1074.5,298h20.5v2h-41v-2H1074.5"/>
		<path class="st7" d="M1044,286L1044,286h0.3c0.5-6.7,3.3-12.5,8.3-17.4l1.4-1.3l0.1-0.1l2.8-2.1c1.1-0.8,2.3-1.4,3.5-2
			c3.8-1.8,8-2.7,12.5-2.7v0h0.1h1.5h0.4h0.1h0.9h1.1h1l1.9,0.1l1,0.1v0.1c2.7,0.4,5.3,1.2,7.7,2.3c1.2,0.6,2.4,1.2,3.5,2l2.8,2.2
			l0.1,0l1.4,1.3c5,4.8,7.8,10.4,8.5,16.9l0.1,0.5h-0.1v2.4l0.1-1.4l0-0.4v5l0,0.3l-0.1,0.3v0.7v17h-61V286 M1077.5,268.1h-0.5h-1.1
			h-1h-0.4h-0.4h-1.1h-0.1v0l-1.4,0c-4.6,0.3-8.7,2.1-12.1,5.4l0.1-0.1c-3.5,3.4-5.3,7.5-5.5,12.3v0.2h-0.1V298v2h41v-2V286h0.1
			v-0.2l-0.1-0.9c-0.3-4.4-2.2-8.2-5.4-11.4c-2.5-2.4-5.4-4-8.6-4.8v-0.2l-1-0.1l-1.9-0.2H1077.5"/>
		<path class="st39" d="M1077.5,268.1h0.5l1.9,0.2l1,0.1v0.2c3.2,0.8,6.1,2.4,8.6,4.8c3.3,3.2,5.1,7,5.4,11.4v1.1V298L1077.5,268.1"
			/>
		<path class="st29" d="M1074.5,268.1V298H1054l17.6-29.9l1.4,0v0h0.1h1.1H1074.5"/>
		<path class="st36" d="M1074.5,268.1h0.4h1h1.1h0.5L1095,298h-20.5V268.1"/>
		<path class="st31" d="M1054,298V286h0.1v-0.2c0.1-4.8,1.9-8.9,5.5-12.3l-0.1,0.1c3.4-3.3,7.4-5.1,12.1-5.4L1054,298"/>
		<path class="st11" d="M1095,284.9l0.1,0.9v0.2h-0.1V284.9"/>
		<path class="st17" d="M1105.1,286v0.3v0.4l0,0.4l-0.1,1.4L1105.1,286L1105.1,286L1105.1,286 M1105.1,291.6v1.3h-0.1v-0.7l0.1-0.3
			L1105.1,291.6"/>
	</g>
	<g>
		<path class="st6" d="M1044.1,189.5v-1.9c0.2-7.5,3-13.9,8.5-19.3l1.4-1.3l0.1-0.1c2.5-2.2,5.3-3.8,8.2-4.9c3.3-1.3,7-1.9,10.9-1.9
			l1.2,0h0.3h0.5h0.8h0.2h0.1h1c3.5,0.1,6.8,0.7,9.8,1.9c3,1.1,5.7,2.8,8.2,4.9l0.2,0.1l1.3,1.3c5.6,5.4,8.4,11.8,8.6,19.3v1.3
			c-0.4-7.1-3.2-13.2-8.6-18.4l-1.4-1.3l-0.1-0.1l-2.8-2.1c-2-1.3-4.2-2.4-6.4-3.2c-2.7-0.9-5.7-1.4-8.8-1.5h-1h-1h-0.5l-1.4,0h-0.1
			c-3.4,0-6.7,0.5-9.7,1.5c-2.3,0.8-4.4,1.8-6.4,3.2l-2.8,2.1l-0.1,0.1l-1.4,1.3c-5.3,5.2-8.1,11.3-8.4,18.4L1044.1,189.5
			 M1095,218.1v2h-41v-2h20.5H1095"/>
		<path class="st7" d="M1095,218.1V193h0.1v-5.2l-0.1-0.9c-0.1-1.3-0.3-2.6-0.7-3.8c-0.9-2.8-2.5-5.3-4.8-7.6
			c-2.3-2.3-5-3.8-7.9-4.6l-4.7-0.7h-1h-1h-0.5l-1.4,0h-0.1c-2,0-3.8,0.3-5.6,0.8c-2.9,0.8-5.6,2.4-7.9,4.7l0.1-0.1
			c-2.3,2.2-3.9,4.8-4.7,7.6c-0.5,1.5-0.7,3.1-0.8,4.8v5.2h-0.1v25.1v2h41V218.1 M1105.1,188.9v12.5l0,0.5l-0.1,0.4v6V230h-61v-37
			h0.1v-3.5l0.1-0.6c0.3-7.1,3.1-13.2,8.4-18.4l1.4-1.3l0.1-0.1l2.8-2.1c2-1.3,4.1-2.4,6.4-3.2c3-1,6.3-1.5,9.7-1.5h0.1l1.4,0h0.5h1
			h1c3.1,0.1,6,0.6,8.8,1.5c2.3,0.8,4.4,1.8,6.4,3.2l2.8,2.1l0.1,0.1l1.4,1.3C1101.9,175.7,1104.7,181.8,1105.1,188.9"/>
		<path class="st36" d="M1074.5,170.1h0.5h1h1l4.7,0.7l-7.2,12.2l20.5,35h-20.5v-35V170.1"/>
		<path class="st29" d="M1074.5,170.1v12.9l-7.1-12.2c1.8-0.5,3.6-0.8,5.6-0.8h0.1L1074.5,170.1 M1074.5,218.1H1054l20.5-35V218.1"
			/>
		<path class="st39" d="M1094.3,183.1c0.4,1.2,0.6,2.5,0.7,3.8v6.1v25.1l-20.5-35H1094.3 M1054.8,183.1c0.8-2.8,2.4-5.4,4.7-7.6
			l-0.1,0.1c2.3-2.3,5-3.8,7.9-4.7l7.1,12.2H1054.8"/>
		<path class="st31" d="M1054.8,183.1h19.7l7.2-12.2c2.9,0.8,5.6,2.4,7.9,4.6c2.3,2.2,3.9,4.8,4.8,7.6h-19.8l-20.5,35V193h0.1v-5.2
			C1054.1,186.1,1054.4,184.6,1054.8,183.1"/>
		<path class="st11" d="M1095,186.9l0.1,0.9v5.2h-0.1V186.9"/>
		<path class="st17" d="M1105.1,201.4v1.9l-0.1,5.1v-6l0.1-0.4L1105.1,201.4"/>
	</g>
	<path class="st6" d="M480,516l0-1c0-9.6,3.4-17.9,10.3-24.7c6.8-6.9,15.1-10.3,24.7-10.3c9.6,0,17.9,3.4,24.8,10.3
		c6.8,6.8,10.3,15.1,10.3,24.7v1c-0.2-9.2-3.6-17.1-10.3-23.7c-6.9-6.9-15.1-10.3-24.8-10.3c-9.6,0-17.9,3.4-24.7,10.3
		C483.7,498.9,480.3,506.8,480,516"/>
	<path class="st7" d="M480,516c0.2-9.2,3.6-17.1,10.3-23.7c6.8-6.9,15.1-10.3,24.7-10.3c9.6,0,17.9,3.4,24.8,10.3
		c6.6,6.6,10,14.5,10.3,23.7c-0.2,9.2-3.6,17.1-10.3,23.8c-6.9,6.8-15.1,10.3-24.8,10.3c-9.6,0-17.9-3.4-24.7-10.3
		C483.7,533.1,480.3,525.2,480,516 M488,516c0.2,7,2.8,13,7.9,18.1c5.3,5.3,11.7,7.9,19.1,7.9s13.8-2.6,19.1-7.9
		c5-5.1,7.7-11.1,7.9-18.1v-1c0-7.4-2.6-13.8-7.9-19.1c-5.3-5.3-11.7-7.9-19.1-7.9s-13.8,2.6-19.1,7.9c-5.3,5.3-7.9,11.7-7.9,19.1
		L488,516"/>
	<path class="st41" d="M488,516l0-1c0-7.4,2.6-13.8,7.9-19.1c5.3-5.3,11.7-7.9,19.1-7.9s13.8,2.6,19.1,7.9
		c5.3,5.3,7.9,11.7,7.9,19.1v1c-0.2-7-2.9-13-7.9-18.1c-5.3-5.3-11.7-7.9-19.1-7.9s-13.8,2.6-19.1,7.9C490.9,503,488.3,509,488,516"
		/>
	<path class="st42" d="M488,516c0.2-7,2.8-13,7.9-18.1c5.3-5.3,11.7-7.9,19.1-7.9s13.8,2.6,19.1,7.9c5,5.1,7.7,11.1,7.9,18.1
		c-0.2,7-2.9,13-7.9,18.1c-5.3,5.3-11.7,7.9-19.1,7.9s-13.8-2.6-19.1-7.9C490.9,529,488.3,523,488,516"/>
	<path class="st7" d="M518.5,518.5c-1,1-2.1,1.5-3.5,1.5s-2.5-0.5-3.5-1.5c-0.6-0.6-1-1.2-1.2-1.9c-0.2-0.5-0.3-1-0.3-1.7
		c0-1.4,0.5-2.5,1.5-3.5c1-1,2.2-1.5,3.5-1.5s2.5,0.5,3.5,1.5c1,1,1.5,2.1,1.5,3.5l-0.3,1.7C519.5,517.3,519.1,518,518.5,518.5"/>
	<path class="st43" d="M520,515l2.3-4.5l7.7,4.5l-7.7,4.5L520,515"/>
	<path class="st43" d="M514.5,509l-4.5-4.6l4.5-15.4l4.5,15.4L514.5,509"/>
	<path class="st44" d="M596.7,513.7V502c2.7,2.9,5.5,3.9,8.5,2.8c3-1,5.9,0.3,8.8,4.1v0.6c-2.6-0.1-5.3,0.9-8.1,3
		C602.5,515,599.4,515.4,596.7,513.7 M587.5,526.1h14.4c0.6,0.7,1.1,1.4,1.4,2.2h-17.3C586.5,527.5,586.9,526.8,587.5,526.1
		 M596.7,541.3v2.7h-3.9v-2.7H596.7"/>
	<path class="st27" d="M596.7,541.3h-3.9c-1.8-0.4-3.4-1.2-4.7-2.5c-1.8-1.8-2.8-4-2.8-6.6c0-1.4,0.3-2.7,0.8-3.9h17.3
		c0.5,1.2,0.8,2.5,0.8,3.9c0,2.6-0.9,4.8-2.8,6.6C600,540.1,598.5,541,596.7,541.3 M596.7,513.7v8.4h9.9v-5h6.9v14h-6.9v-5h-4.6
		h-14.4h-4.7v5H576v-14h6.8v5h9.9V502c0-0.5,0.2-1,0.5-1.4c0.4-0.4,0.9-0.6,1.4-0.6c0.5,0,1,0.2,1.4,0.6c0.4,0.4,0.6,0.8,0.6,1.3
		v0.1V513.7 M596.7,544v6h-3.9v-6H596.7"/>
	<path class="st6" d="M70,482v12H0v-12H70"/>
	<path class="st5" d="M70,482H0v-2h70V482"/>
	<path class="st7" d="M70,494v12h-5H5H0v-12H70"/>
	<path class="st45" d="M65,506v6H5v-6H65"/>
	<path class="st4" d="M65,512v38H5v-38H65"/>
	<path class="st5" d="M174,502v-2h42v2H174"/>
	<path class="st45" d="M211,526v6h-32v-6H211"/>
	<path class="st7" d="M211,526h-32h-5v-12h42v12H211"/>
	<path class="st6" d="M216,502v12h-42v-12H216"/>
	<path class="st4" d="M211,532v18h-32v-18H211"/>
	<path class="st5" d="M80,509v-2h70v2H80"/>
	<path class="st6" d="M80,509h70v12H80V509"/>
	<path class="st7" d="M85,533h-5v-12h70v12h-5H85"/>
	<path class="st45" d="M85,533h60v6H85V533"/>
	<path class="st4" d="M145,539v11H85v-11H145"/>
	<g>
		<path class="st46" d="M1060,80h29.9v21h-5c-1.3,0-1.9,0.7-1.9,2v5.8v0.3v11c0,1.2,0.7,1.8,1.9,1.8h5v2v17.3H1060V80"/>
		<path class="st7" d="M1100,80h10v65.6l-0.1,4.4h-9.9V80 M1050,150h-9.9l-0.1-3.8V80h10V150"/>
		<path class="st10" d="M1050,150V80h10v61.3h29.9V124h3.1c1.3,0,1.9-0.7,1.9-2v-1.8v-11v-0.3V103c0-1.3-0.7-2-1.9-2h-3.1V80h10.1
			v70H1050"/>
		<path class="st4" d="M1089.9,122h-5c-1.3,0-1.9-0.6-1.9-1.8v-11c0,1.6,0.6,3,1.8,4.1c1.2,1.2,2.6,1.8,4.3,1.8l0.9-0.1
			c1.2-0.2,2.3-0.8,3.3-1.7c1.1-1.1,1.7-2.5,1.8-4.1v11c0,1.2-0.7,1.8-1.9,1.8H1089.9 M1083,108.8V103c0-1.3,0.7-2,1.9-2h5h3.1
			c1.3,0,1.9,0.7,1.9,2v5.8c0-1.6-0.6-2.9-1.8-4c-1-1-2.1-1.5-3.3-1.7l-0.8-0.1h-0.3c-1.6,0-3,0.6-4.2,1.8
			C1083.6,105.9,1083,107.3,1083,108.8"/>
		<path class="st33" d="M1089.9,124v-2h3.1c1.3,0,1.9-0.6,1.9-1.8v1.8c0,1.3-0.7,2-1.9,2H1089.9"/>
		<path class="st32" d="M1083,109.2v-0.3c0-1.6,0.6-2.9,1.8-4c1.1-1.2,2.5-1.8,4.2-1.8h0.3l0.8,0.1c1.2,0.2,2.3,0.7,3.3,1.7
			c1.1,1.1,1.7,2.5,1.8,4v0.3c0,1.6-0.6,3-1.8,4.1c-1,0.9-2.1,1.5-3.3,1.7l-0.9,0.1c-1.7,0-3.1-0.6-4.3-1.8
			C1083.6,112.1,1083,110.8,1083,109.2"/>
	</g>
	<g>
		<path class="st6" d="M1039.9,59.8v-1.7c0-7.8,2.8-14.4,8.5-20c5.7-5.5,12.5-8.2,20.5-8.2l12.9,0c7.6,0.2,14.1,2.9,19.5,8.2
			c5.7,5.5,8.6,12.2,8.6,20v1.7c-0.1-7.5-3-14-8.6-19.4c-5.4-5.2-11.9-8-19.5-8.2l-12.9,0c-8,0-14.8,2.7-20.5,8.2
			C1042.9,45.9,1040.1,52.3,1039.9,59.8"/>
		<path class="st7" d="M1039.9,59.8c0.1-7.5,3-14,8.5-19.4c5.7-5.5,12.5-8.2,20.5-8.2l12.9,0c7.6,0.2,14.1,2.9,19.5,8.2
			c5.6,5.4,8.5,11.9,8.6,19.4v8.5l-0.1,1.7h-9.9v-9.8v-2c0-5-1.9-9.2-5.5-12.8c-3.5-3.4-7.7-5.2-12.6-5.4l-12.9,0
			c-5.3,0-9.8,1.8-13.6,5.5l0.1-0.1c-3.6,3.5-5.5,7.8-5.5,12.8v1.7V70h-9.9l-0.1-1.4V59.8"/>
		<path class="st9" d="M1099.9,60.2c-0.1-4.9-1.9-9-5.5-12.5c-3.5-3.4-7.7-5.2-12.6-5.4l-12.9,0c-5.3,0-9.8,1.8-13.6,5.5l0.1-0.1
			c-3.5,3.4-5.3,7.5-5.5,12.3v-1.7c0-5,1.8-9.3,5.5-12.8l-0.1,0.1c3.8-3.6,8.3-5.5,13.6-5.5l12.9,0c4.9,0.2,9.1,2,12.6,5.4
			c3.6,3.5,5.5,7.8,5.5,12.8V60.2"/>
		<path class="st10" d="M1099.9,60.2V70h-10v-6v-1v-1.2V60c-0.2-2-1-3.7-2.5-5.2c-1.7-1.6-3.7-2.5-5.9-2.5l-12.6,0
			c-2.6,0-4.8,0.9-6.6,2.7l-0.4,0.3c-1.2,1.4-1.9,3-2,4.8v2v8h-10V59.8c0.1-4.8,2-8.8,5.5-12.3l-0.1,0.1c3.8-3.6,8.3-5.5,13.6-5.5
			l12.9,0c4.9,0.2,9.1,2,12.6,5.4C1098,51.1,1099.8,55.3,1099.9,60.2"/>
		<path class="st46" d="M1059.9,70v-8c0.1-1.8,0.8-3.4,2-4.8l0.4-0.3c1.8-1.8,4-2.7,6.6-2.7l12.6,0c2.3,0.1,4.3,0.9,5.9,2.5
			c1.4,1.4,2.2,3,2.5,5V63v1v6H1059.9"/>
		<path class="st47" d="M1059.9,62v-2c0.1-1.8,0.8-3.4,2-4.8l0.4-0.3c1.8-1.8,4-2.7,6.6-2.7l12.6,0c2.3,0.1,4.3,0.9,5.9,2.5
			c1.5,1.4,2.3,3.2,2.5,5.2v1.8c-0.2-1.9-1.1-3.6-2.5-5c-1.7-1.6-3.7-2.5-5.9-2.5l-12.6,0c-2.6,0-4.8,0.9-6.6,2.7l-0.4,0.3
			C1060.7,58.6,1060,60.2,1059.9,62"/>
	</g>
	<g>
		<path class="st7" d="M865,480l0,10.5v43.5h0V550h-61v-70h10v58v2h41v-2v-58H865"/>
		<path class="st17" d="M865,480L865,480l0.1,3.3l0,7.2L865,480"/>
		<path class="st20" d="M855,480v58h-41v-58H855"/>
		<path class="st6" d="M855,538v2h-41v-2H855"/>
	</g>
	<path class="st48" d="M240,402v-2h70v2H240"/>
	<path class="st49" d="M240,402h70v9h-12h-4.1H289h-4h-22h-4.1H254h-4h-10V402"/>
	<path class="st1" d="M298,414h4c2.7,0,4,1.3,4,4v1.8c-0.1-2.5-1.4-3.8-4-3.8h-53c-2.6,0-3.9,1.3-4,3.8V418c0-2.7,1.3-4,4-4h0.9h4h5
		h4h22h4h5H298"/>
	<path class="st50" d="M298,414h-4v-2.5l-0.1-0.5h4.1v0.5V414 M249.9,414v-2.5l0.1-0.5h4l-0.1,0.5v2.5H249.9 M285,411h4l0,0.5v2.5
		h-4v-2.5L285,411 M263,414h-4v-2.5l-0.1-0.5h4.1v0.5V414"/>
	<path class="st0" d="M306,419.8V459c0,2.7-1.3,4-4,4h-53c-2.7,0-4-1.3-4-4v-39.2c0.1-2.5,1.4-3.8,4-3.8h53
		C304.6,416,305.9,417.3,306,419.8 M250,458h51v-37h-51V458"/>
	<path class="st2" d="M250,458v-37h51v37H250"/>
	<path class="st3" d="M289,439.5v0.5v0.8c-0.2,3.3-1.4,6.1-3.9,8.5c-2.5,2.5-5.5,3.8-9.1,3.8c-3.6,0-6.7-1.3-9.2-3.8
		c-2.2-2.2-3.4-4.8-3.8-7.7v-0.8l0-0.8l0-1v-0.5c0.3-2.9,1.6-5.5,3.8-7.6c2.5-2.6,5.6-3.9,9.2-3.9c3.6,0,6.6,1.3,9.1,3.9
		c2.4,2.3,3.7,5.1,3.9,8.4v0V439.5 M283.8,440l0-0.9c-0.2-1.8-0.9-3.3-2.3-4.6c-1.5-1.5-3.4-2.3-5.5-2.3c-2.2,0-4,0.8-5.5,2.3
		c-1.2,1.3-2,2.7-2.2,4.4l-0.1,1.1l0,0.5v0.1c0.1,1.9,0.8,3.5,2.2,4.9c1.5,1.5,3.4,2.2,5.5,2.3c2.1,0,4-0.8,5.5-2.3
		c1.3-1.3,2.1-2.9,2.3-4.8v-0.3V440 M276,435.5L276,435.5c0.4,0,0.8,0.1,1.1,0.5c0.3,0.3,0.5,0.7,0.5,1.1v5.9c0,0.4-0.2,0.7-0.5,1
		c-0.3,0.3-0.7,0.5-1.1,0.5h0c-0.4,0-0.8-0.2-1.1-0.5c-0.3-0.3-0.4-0.6-0.4-1V437c0-0.4,0.1-0.8,0.4-1.1
		C275.2,435.6,275.6,435.5,276,435.5"/>
	<path class="st48" d="M320,402v-2h70v2H320"/>
	<path class="st49" d="M320,402h70v9h-12h-4.1H369h-4h-22h-4.1H334h-4h-10V402"/>
	<path class="st1" d="M378,414h4c2.7,0,4,1.3,4,4v1.8c-0.1-2.5-1.4-3.8-4-3.8h-53c-2.6,0-3.9,1.3-4,3.8V418c0-2.7,1.3-4,4-4h1h4h5h4
		h22h4h5H378"/>
	<path class="st50" d="M378,414h-4v-2.5l-0.1-0.5h4.1v0.5V414 M330,414v-2.5l0-0.5h4l0,0.5v2.5H330 M338.9,411h4.1v0.5v2.5h-4v-2.5
		L338.9,411 M365,411h4l0,0.5v2.5h-4v-2.5L365,411"/>
	<path class="st0" d="M386,419.8V459c0,2.7-1.3,4-4,4h-53c-2.7,0-4-1.3-4-4v-39.2c0.1-2.5,1.4-3.8,4-3.8h53
		C384.6,416,385.9,417.3,386,419.8 M330,421v37h51v-37H330"/>
	<path class="st2" d="M330,421h51v37h-51V421"/>
	<path class="st3" d="M367,440.7c0.3,0,0.5-0.2,0.5-0.7v-8.3c0-0.3-0.2-0.5-0.5-0.5h-3.6v9.4H367 M371,440c0,1.1-0.4,2-1.1,2.8
		c-0.8,0.8-1.7,1.1-2.8,1.1h-3.6v5.5c0,0.7-0.2,1.3-0.8,1.8c-0.6,0.5-1.2,0.8-1.9,0.8h-15.1c-0.8,0-1.4-0.3-1.9-0.8
		s-0.8-1.1-0.8-1.8V428h24c1.1,0,2,0.4,2.8,1.1c0.7,0.7,1.1,1.6,1.1,2.7V440"/>
	<path class="st48" d="M400,402v-2h70v2H400"/>
	<path class="st49" d="M400,402h70v9h-12h-4.1H449h-4h-22h-4.1H414h-4h-10V402"/>
	<path class="st1" d="M458,414h4c2.7,0,4,1.3,4,4v1.8c-0.1-2.5-1.4-3.8-4-3.8h-53c-2.6,0-3.9,1.3-4,3.8V418c0-2.7,1.3-4,4-4h1h4h5h4
		h22h4h5H458"/>
	<path class="st50" d="M458,414h-4v-2.5l-0.1-0.5h4.1v0.5V414 M410,414v-2.5l0-0.5h4l0,0.5v2.5H410 M449,414h-4v-2.5l0-0.5h4l0,0.5
		V414 M423,414h-4v-2.5l-0.1-0.5h4.1v0.5V414"/>
	<path class="st0" d="M466,419.8V459c0,2.7-1.3,4-4,4h-53c-2.7,0-4-1.3-4-4v-39.2c0.1-2.5,1.4-3.8,4-3.8h53
		C464.6,416,465.9,417.3,466,419.8 M461,421h-51v37h51V421"/>
	<path class="st2" d="M461,421v37h-51v-37H461"/>
	<path class="st3" d="M446.7,434.3L446.7,434.3h0.2h3.4c0.4,0.1,0.7,0.4,0.7,1v13.9c0,0.6-0.3,0.9-0.9,0.9h-0.1h-0.1h-0.2h-0.1h-0.1
		h-0.1H449h-0.2h-0.1h-0.1h-0.2h-0.2H448h-0.2h-0.1h-0.2h-0.2h-0.1c-0.7,0-1-0.3-1-0.9v-2.3H446h-19.3v2.3c0,0.6-0.3,0.9-1,0.9
		l-0.3,0l-0.3,0l-0.2,0l-0.3,0h-0.1h-0.1h-0.1h-0.2H424h-0.1h-0.1h-0.2h-0.1h-0.1H423h-0.2c-0.6,0-0.9-0.3-0.9-0.9v-20.3
		c0-0.6,0.3-0.9,0.9-0.9h0.2h0.2h0.1h0.1h0.2h0.1h0.1h0.1h0.2h0.1h0.1h0.1h0.3h0.2h0.3h0.3c0.6,0,1,0.3,1,0.9v5.3h2.6
		c0.5,0,0.8,0.2,1.1,0.5l0.5,1.1v3.8h1.3v-3.8c0-0.4,0.2-0.8,0.6-1.1l0.5-0.4H446.7"/>
	<g>
		<path class="st51" d="M710,230h-70v-70h70V230"/>
		<path class="st52" d="M710,230h-13c-2,0-3-1-3-2.9v-12.2c0-1.9,1-2.9,3-2.9h13V230 M697,195c-2,0-3-1-3-2.9v-12.2
			c0-1.9,1-2.9,3-2.9h13v18H697"/>
		<path class="st53" d="M694,179.9v-1.9c0-2,1-2.9,3-2.9h13v2h-13C695,177,694,177.9,694,179.9 M710,210v2h-13c-2,0-3,0.9-3,2.9
			v-1.9c0-2,1-2.9,3-2.9H710"/>
		<path class="st54" d="M710,210h-13v-15h13V210 M697,175v-15h13v15H697"/>
		<path class="st52" d="M640,213.9v-12h70v12H640"/>
		<path class="st53" d="M640,201.9v-2h70v2H640"/>
		<path class="st54" d="M710,213.9V230h-70v-16.1H710"/>
	</g>
	<g>
		<path class="st51" d="M710,150h-70V80h70V150"/>
		<path class="st54" d="M710,95h-13V80h13V95 M697,130v-15h13v15H697"/>
		<path class="st53" d="M697,130h13v2h-13c-2,0-3,0.9-3,2.9v-1.9C694,131,695,130,697,130 M697,95h13v2h-13c-2,0-3,1-3,2.8v-1.9
			C694,96,695,95,697,95"/>
		<path class="st52" d="M694,99.8c0-1.9,1-2.8,3-2.8h13v18h-13c-2,0-3-1-3-2.9V99.8 M710,132v18h-13c-2,0-3-1-3-2.9v-12.2
			c0-1.9,1-2.9,3-2.9H710"/>
		<path class="st8" d="M710,90h-70V80h70V90"/>
	</g>
	<g>
		<path class="st51" d="M710,70h-70V0h70V70"/>
		<path class="st53" d="M710,15v2h-13c-2,0-3,0.9-3,2.9V18c0-2,1-3,3-3H710 M710,50v2h-13c-2,0-3,1-3,2.8V53c0-2,1-3,3-3H710"/>
		<path class="st54" d="M710,50h-13V35h13V50 M697,15V0h13v15H697"/>
		<path class="st52" d="M710,17v18h-13c-2,0-3-1-3-3V19.9c0-1.9,1-2.9,3-2.9H710 M710,52v18h-13c-2,0-3-1-3-2.9V54.8
			c0-1.9,1-2.8,3-2.8H710"/>
	</g>
	<g>
		<path class="st51" d="M630,70h-70V0h70V70"/>
	</g>
	<g>
		<path class="st51" d="M550,70h-70V0h70V70"/>
		<path class="st54" d="M480,35h13v15h-13V35 M493,15h-13V0h13V15"/>
		<path class="st53" d="M493,15c2,0,3,1,3,3v1.9c0-1.9-1-2.9-3-2.9h-13v-2H493 M496,54.8c0-1.9-1-2.8-3-2.8h-13v-2h13c2,0,3,1,3,3
			V54.8"/>
		<path class="st52" d="M496,54.8v12.2c0,2-1,2.9-3,2.9h-13V52h13C495,52,496,53,496,54.8 M480,17h13c2,0,3,0.9,3,2.9V32
			c0,2-1,3-3,3h-13V17"/>
	</g>
	<g>
		<path class="st51" d="M550,150h-70V80h70V150"/>
		<path class="st54" d="M493,95h-13V80h13V95 M493,115v15h-13v-15H493"/>
		<path class="st53" d="M493,95c2,0,3,1,3,2.9v1.9c0-1.9-1-2.8-3-2.8h-13v-2H493 M493,130c2,0,3,1,3,2.9v1.9c0-1.9-1-2.9-3-2.9h-13
			v-2H493"/>
		<path class="st52" d="M480,97h13c2,0,3,1,3,2.8v12.2c0,2-1,2.9-3,2.9h-13V97 M496,134.9v12.2c0,2-1,2.9-3,2.9h-13v-18h13
			C495,132,496,132.9,496,134.9"/>
		<path class="st8" d="M550,90h-70V80h70V90"/>
	</g>
	<g>
		<path class="st51" d="M550,230h-70v-70h70V230"/>
		<path class="st54" d="M493,175h-13v-15h13V175 M493,195v15h-13v-15H493"/>
		<path class="st53" d="M493,175c2,0,3,1,3,2.9v1.9c0-1.9-1-2.9-3-2.9h-13v-2H493 M493,210c2,0,3,1,3,2.9v1.9c0-1.9-1-2.9-3-2.9h-13
			v-2H493"/>
		<path class="st52" d="M480,177h13c2,0,3,0.9,3,2.9v12.2c0,2-1,2.9-3,2.9h-13V177 M496,214.9v12.2c0,2-1,2.9-3,2.9h-13v-18h13
			C495,212,496,212.9,496,214.9"/>
		<path class="st53" d="M480,201.9v-2h70v2H480"/>
		<path class="st52" d="M480,201.9h70v12h-70V201.9"/>
		<path class="st54" d="M550,213.9V230h-70v-16.1H550"/>
	</g>
	<g>
		<path class="st51" d="M630,160v39.9h-70V160H630"/>
		<path class="st52" d="M560,213.9v-12h70v12H560"/>
		<path class="st53" d="M560,201.9v-2h70v2H560"/>
		<path class="st54" d="M630,213.9V230h-70v-16.1H630"/>
	</g>
	<g>
		<path class="st51" d="M560,150V80h70v70H560"/>
		<path class="st8" d="M630,90h-70V80h70V90"/>
	</g>
	<g>
		<path class="st27" d="M470,70h-70V0h70V70"/>
		<path class="st55" d="M470,15v2h-13c-2,0-3,0.9-3,2.9V18c0-2,1-3,3-3H470 M470,50v2h-13c-2,0-3,1-3,2.8V53c0-2,1-3,3-3H470"/>
		<path class="st56" d="M470,50h-13V35h13V50 M457,15V0h13v15H457"/>
		<path class="st57" d="M470,17v18h-13c-2,0-3-1-3-3V19.9c0-1.9,1-2.9,3-2.9H470 M470,52v18h-13c-2,0-3-1-3-2.9V54.8
			c0-1.9,1-2.8,3-2.8H470"/>
	</g>
	<g>
		<path class="st27" d="M400,150V80h70v70H400"/>
		<path class="st56" d="M470,95h-13V80h13V95 M470,130h-13v-15h13V130"/>
		<path class="st55" d="M470,130v2h-13c-2,0-3,0.9-3,2.9v-1.9c0-2,1-2.9,3-2.9H470 M457,95h13v2h-13c-2,0-3,1-3,2.8v-1.9
			C454,96,455,95,457,95"/>
		<path class="st57" d="M454,99.8c0-1.9,1-2.8,3-2.8h13v18h-13c-2,0-3-1-3-2.9V99.8 M454,134.9c0-1.9,1-2.9,3-2.9h13v18h-13
			c-2,0-3-1-3-2.9V134.9"/>
		<path class="st8" d="M470,90h-70V80h70V90"/>
	</g>
	<g>
		<path class="st27" d="M470,160v70h-70v-70H470"/>
		<path class="st55" d="M454,179.9v-1.9c0-2,1-2.9,3-2.9h13v2h-13C455,177,454,177.9,454,179.9 M470,210v2h-13c-2,0-3,0.9-3,2.9
			v-1.9c0-2,1-2.9,3-2.9H470"/>
		<path class="st57" d="M470,177v18h-13c-2,0-3-1-3-2.9v-12.2c0-1.9,1-2.9,3-2.9H470 M470,212v18h-13c-2,0-3-1-3-2.9v-12.2
			c0-1.9,1-2.9,3-2.9H470"/>
		<path class="st56" d="M457,175v-15h13v15H457 M470,195v15h-13v-15H470"/>
		<path class="st57" d="M400,213.9v-12h70v12H400"/>
		<path class="st55" d="M400,201.9v-2h70v2H400"/>
		<path class="st56" d="M470,213.9V230h-70v-16.1H470"/>
	</g>
	<g>
		<path class="st27" d="M390,199.9h-70V160h70V199.9"/>
		<path class="st57" d="M320,213.9v-12h70v12H320"/>
		<path class="st55" d="M320,201.9v-2h70v2H320"/>
		<path class="st56" d="M390,213.9V230h-70v-16.1H390"/>
	</g>
	<g>
		<path class="st27" d="M310,160v70h-70v-70H310"/>
		<path class="st56" d="M240,195h13v15h-13V195 M240,175v-15h13v15H240"/>
		<path class="st55" d="M240,175h13c2,0,3,1,3,2.9v1.9c0-1.9-1-2.9-3-2.9h-13V175 M256,214.9c0-1.9-1-2.9-3-2.9h-13v-2h13
			c2,0,3,1,3,2.9V214.9"/>
		<path class="st57" d="M256,214.9v12.2c0,2-1,2.9-3.1,2.9H240v-18h13C255,212,256,212.9,256,214.9 M240,195v-18h13c2,0,3,0.9,3,2.9
			v12.2c0,2-1,2.9-3,2.9H240"/>
		<path class="st57" d="M240,213.9v-12h70v12H240"/>
		<path class="st55" d="M240,201.9v-2h70v2H240"/>
		<path class="st56" d="M310,213.9V230h-70v-16.1H310"/>
	</g>
	<g>
		<path class="st27" d="M240,80h70v70h-70V80"/>
		<path class="st56" d="M240,80h13v15h-13V80 M253,115v15h-13v-15H253"/>
		<path class="st55" d="M253,95c2,0,3,1,3,2.9v1.9c0-1.9-1-2.8-3-2.8h-13v-2H253 M253,130c2,0,3,1,3,2.9v1.9c0-1.9-1-2.9-3-2.9h-13
			v-2H253"/>
		<path class="st57" d="M240,97h13c2,0,3,1,3,2.8v12.2c0,2-1,2.9-3,2.9h-13V97 M256,134.9v12.2c0,2-1,2.9-3.1,2.9H240v-18h13
			C255,132,256,132.9,256,134.9"/>
		<path class="st8" d="M310,90h-70V80h70V90"/>
	</g>
	<g>
		<path class="st27" d="M310,70h-70V0h70V70"/>
		<path class="st56" d="M240,35h13v15h-13V35 M253,15h-13V0h13V15"/>
		<path class="st55" d="M253,15c2,0,3,1,3,3v1.9c0-1.9-1-2.9-3-2.9h-13v-2H253 M253,50c2,0,3,1,3,3v1.9c0-1.9-1-2.8-3-2.8h-13v-2
			H253"/>
		<path class="st57" d="M256,19.9V32c0,2-1,3-3,3h-13V17h13C255,17,256,17.9,256,19.9 M256,54.8v12.2c0,2-1,2.9-3.1,2.9H240V52h13
			C255,52,256,53,256,54.8"/>
	</g>
	<g>
		<path class="st27" d="M390,70h-70V0h70V70"/>
	</g>
	<g>
		<path class="st27" d="M390,150h-70V80h70V150"/>
		<path class="st8" d="M390,90h-70V80h70V90"/>
	</g>
	<path class="st58" d="M537.8,431v2h-2.5h-40.6h-2.5v-2H537.8 M537.8,448v2h-2.5h-40.6h-2.5v-2H537.8 M550,427
		c0-1.7-0.6-3.1-1.8-4.3c-1.2-1.2-2.6-1.8-4.3-1.8s-3.2,0.6-4.4,1.8c-1.1,1.2-1.7,2.6-1.8,4.2v-1.9c0-1.7,0.6-3.1,1.8-4.4
		c1.2-1.2,2.7-1.8,4.4-1.8s3.1,0.6,4.3,1.8c1.2,1.2,1.8,2.6,1.8,4.4V427 M492.2,427c0-1.7-0.6-3.1-1.8-4.3c-1.2-1.2-2.6-1.8-4.3-1.8
		s-3.2,0.6-4.4,1.8c-1.1,1.2-1.7,2.6-1.8,4.2v-1.9c0-1.7,0.6-3.1,1.8-4.4c1.2-1.2,2.6-1.8,4.4-1.8s3.1,0.6,4.3,1.8
		c1.2,1.2,1.8,2.6,1.8,4.4V427"/>
	<path class="st49" d="M492.2,427v4v2v12.1v2.9v2v12.1v7.9H480v-43c0-1.6,0.6-3,1.8-4.2c1.2-1.2,2.6-1.8,4.4-1.8s3.1,0.6,4.3,1.8
		C491.6,424,492.2,425.4,492.2,427 M537.8,433v-2v-4c0-1.6,0.6-3,1.8-4.2c1.2-1.2,2.7-1.8,4.4-1.8s3.1,0.6,4.3,1.8
		c1.2,1.2,1.8,2.6,1.8,4.3v43h-12.2v-7.9V450v-2v-2.9V433"/>
	<path class="st59" d="M537.8,433v12.1h-2.5V433H537.8 M492.2,433h2.5v12.1h-2.5V433 M537.8,450v12.1h-2.5V450H537.8 M492.2,462.1
		V450h2.5v12.1H492.2"/>
	<path class="st60" d="M494.7,433h40.6v12.1h-40.6V433 M494.7,462.1V450h40.6v12.1H494.7"/>
	<path class="st58" d="M630,427c0-1.7-0.6-3.1-1.8-4.3c-1.2-1.2-2.6-1.8-4.3-1.8s-3.2,0.6-4.4,1.8c-1.1,1.2-1.7,2.6-1.8,4.2v-1.9
		c0-1.7,0.6-3.1,1.8-4.4c1.2-1.2,2.7-1.8,4.4-1.8s3.1,0.6,4.3,1.8c1.2,1.2,1.8,2.6,1.8,4.4V427 M560,427v-1.9c0-1.7,0.6-3.1,1.8-4.4
		c1.2-1.2,2.6-1.8,4.3-1.8s3.1,0.6,4.3,1.8c1.2,1.2,1.8,2.6,1.8,4.4v1.9c0-1.7-0.6-3.1-1.8-4.3c-1.2-1.2-2.6-1.8-4.3-1.8
		s-3.1,0.6-4.3,1.8C560.6,424,560,425.4,560,427"/>
	<path class="st49" d="M560,427c0-1.6,0.6-3,1.8-4.2c1.2-1.2,2.6-1.8,4.3-1.8s3.1,0.6,4.3,1.8c1.2,1.2,1.8,2.6,1.8,4.3v43H560V427
		 M617.8,427c0-1.6,0.6-3,1.8-4.2c1.2-1.2,2.7-1.8,4.4-1.8s3.1,0.6,4.3,1.8c1.2,1.2,1.8,2.6,1.8,4.3v43h-12.2V427"/>
	<path class="st58" d="M640,427v-1.9c0-1.7,0.6-3.1,1.8-4.4c1.2-1.2,2.6-1.8,4.3-1.8s3.1,0.6,4.3,1.8c1.2,1.2,1.8,2.6,1.8,4.4v1.9
		c0-1.7-0.6-3.1-1.8-4.3c-1.2-1.2-2.6-1.8-4.3-1.8s-3.1,0.6-4.3,1.8C640.6,424,640,425.4,640,427"/>
	<path class="st49" d="M640,427c0-1.6,0.6-3,1.8-4.2c1.2-1.2,2.6-1.8,4.3-1.8s3.1,0.6,4.3,1.8c1.2,1.2,1.8,2.6,1.8,4.3v43H640V427"
		/>
	<path class="st58" d="M709.8,433h-2.5h-52.6h-2.5v-2h57.6V433 M652.2,450v-2h57.6v2h-2.5h-52.6H652.2"/>
	<path class="st59" d="M652.2,450h2.5v12.1h-2.5V450 M709.8,433v12.1h-2.5V433H709.8 M654.7,445.1h-2.5V433h2.5V445.1 M707.3,450
		h2.5v12.1h-2.5V450"/>
	<path class="st60" d="M707.3,450v12.1h-52.6V450H707.3 M707.3,433v12.1h-52.6V433H707.3"/>
	<path class="st0" d="M306,491.8V541c0,2.7-1.3,4-4,4h-53c-2.7,0-4-1.3-4-4v-49.2c0.1-2.5,1.4-3.8,4-3.8h53
		C304.6,488,305.9,489.3,306,491.8 M301,493h-51v47h51V493"/>
	<path class="st1" d="M245,491.8V490c0-2.7,1.3-4,4-4h53c2.7,0,4,1.3,4,4v1.8c-0.1-2.5-1.4-3.8-4-3.8h-53
		C246.4,488,245.1,489.3,245,491.8"/>
	<path class="st2" d="M301,493v47h-51v-47H301"/>
	<path class="st3" d="M289,517v0.8c-0.2,3.3-1.4,6.1-3.9,8.5c-2.5,2.5-5.5,3.8-9.1,3.8c-3.6,0-6.7-1.3-9.2-3.8
		c-2.2-2.2-3.4-4.8-3.8-7.7v-0.8l0-0.8l0-1v-0.5c0.3-2.9,1.6-5.5,3.8-7.6c2.5-2.6,5.6-3.9,9.2-3.9c3.6,0,6.6,1.3,9.1,3.9
		c2.4,2.3,3.7,5.1,3.9,8.4v0v0.2V517 M283.8,516.2c-0.2-1.8-0.9-3.3-2.3-4.7c-1.5-1.5-3.4-2.3-5.5-2.3c-2.2,0-4,0.8-5.5,2.3
		c-1.2,1.3-2,2.7-2.2,4.4l-0.1,1.1l0,0.5v0.1c0.1,1.9,0.8,3.5,2.2,5c1.5,1.5,3.4,2.3,5.5,2.3c2.1,0,4-0.8,5.5-2.3
		c1.3-1.3,2.1-2.9,2.3-4.8v-0.3V517L283.8,516.2 M276,512.5L276,512.5c0.4,0,0.8,0.1,1.1,0.5c0.3,0.3,0.5,0.7,0.5,1.1v5.9
		c0,0.4-0.2,0.8-0.5,1c-0.3,0.3-0.7,0.5-1.1,0.5h0c-0.4,0-0.8-0.2-1.1-0.5c-0.3-0.3-0.4-0.6-0.4-1V514c0-0.4,0.1-0.8,0.4-1.1
		C275.2,512.6,275.6,512.5,276,512.5"/>
	<g>
		<path class="st5" d="M730,19.9V18c0-2,1-3,3-3h19c2,0,3,1,3,3v1.9c0-1.9-1-2.9-3-2.9h-19C731,17,730,17.9,730,19.9"/>
		<path class="st5" d="M745,40L745,40c0-2,1-3,3-3h12c2,0,3,1,3,3v0h-0.5c-0.5-0.7-1.3-1-2.5-1h-12c-1.2,0-2,0.3-2.5,1H745"/>
		<path class="st4" d="M745,40v6c0,0.8,0.2,1.5,0.5,2c0.5,0.7,1.3,1,2.5,1h12c1.2,0,2-0.3,2.5-1c0.3-0.5,0.5-1.1,0.5-2v-6v0
			c0-2-1-3-3-3h-12C746,37,745,38,745,40L745,40"/>
		<path class="st4" d="M755,19.9V18c0-2-1-3-3-3h-19c-2,0-3,1-3,3v1.9V32c0,0.8,0.2,1.5,0.5,2c0.5,0.7,1.3,1,2.5,1h19
			c1.2,0,2-0.3,2.5-1c0.3-0.5,0.5-1.1,0.5-2V19.9"/>
		<polyline class="st4" points="790,70 720,70 720,0 790,0 790,70 		"/>
		<path class="st6" d="M730,19.9c0-1.9,1-2.9,3-2.9h19c2,0,3,0.9,3,2.9V32c0,0.8-0.2,1.5-0.5,2c-0.5,0.7-1.3,1-2.5,1h-19
			c-1.2,0-2-0.3-2.5-1c-0.3-0.5-0.5-1.1-0.5-2V19.9"/>
		<path class="st6" d="M763,40v6c0,0.8-0.2,1.5-0.5,2c-0.5,0.7-1.3,1-2.5,1h-12c-1.2,0-2-0.3-2.5-1c-0.3-0.5-0.5-1.1-0.5-2v-6h0.5
			c0.5-0.7,1.3-1,2.5-1h12c1.2,0,2,0.3,2.5,1H763"/>
	</g>
	<path class="st57" d="M755,99.8v12.2c0,0.8-0.2,1.5-0.5,1.9c-0.5,0.7-1.3,1-2.5,1h-19c-1.2,0-2-0.3-2.5-1c-0.3-0.5-0.5-1.1-0.5-1.9
		V99.8c0-1.9,1-2.8,3-2.8h19C753.9,97,754.9,98,755,99.8 M745,120h0.5c0.5-0.7,1.3-1,2.5-1h12c1.2,0,2,0.3,2.5,1h0.5v6.1
		c0,0.8-0.2,1.5-0.5,1.9c-0.5,0.7-1.3,1-2.5,1h-12c-1.2,0-2-0.3-2.5-1c-0.3-0.5-0.5-1.1-0.5-1.9V120"/>
	<path class="st55" d="M745,120L745,120c0-2,1-3,3-3h12c2,0,3,1,3,2.9v0.1h-0.5c-0.5-0.7-1.3-1-2.5-1h-12c-1.2,0-2,0.3-2.5,1H745
		 M730,99.8v-1.9c0-2,1-2.9,3-2.9h19c2,0,3,1,3,2.9v1.9c0-1.9-1-2.8-3-2.8h-19C731,97,730,98,730,99.8"/>
	<path class="st27" d="M730,99.8v12.2c0,0.8,0.2,1.5,0.5,1.9c0.5,0.7,1.3,1,2.5,1h19c1.2,0,2-0.3,2.5-1c0.3-0.5,0.5-1.1,0.5-1.9
		V99.8v-1.9c0-2-1-2.9-3-2.9h-19c-2,0-3,1-3,2.9V99.8 M763,120L763,120c0-2-1-3-3-3h-12c-2,0-3,1-3,2.9v0.1v6.1
		c0,0.8,0.2,1.5,0.5,1.9c0.5,0.7,1.3,1,2.5,1h12c1.2,0,2-0.3,2.5-1c0.3-0.5,0.5-1.1,0.5-1.9V120 M790,150h-70V80h70V150"/>
	<path class="st61" d="M730,179.9c0-1.9,1-2.9,3-2.9h19c2,0,3,0.9,3,2.9v12.2c0,0.8-0.2,1.5-0.5,1.9c-0.5,0.7-1.3,1-2.5,1h-19
		c-1.2,0-2-0.3-2.5-1c-0.3-0.5-0.5-1.1-0.5-1.9V179.9 M745,200h0.5c0.5-0.7,1.3-1,2.5-1h12c1.2,0,2,0.3,2.5,1h0.5v6.1
		c0,0.8-0.2,1.5-0.5,1.9c-0.5,0.7-1.3,1-2.5,1h-12c-1.2,0-2-0.3-2.5-1c-0.3-0.5-0.5-1.1-0.5-1.9V200"/>
	<path class="st62" d="M745,200L745,200c0-2,1-3,3-3h12c2,0,3,1,3,2.9v0.1h-0.5c-0.5-0.7-1.3-1-2.5-1h-12c-1.2,0-2,0.3-2.5,1H745
		 M755,179.9c0-1.9-1-2.9-3-2.9h-19c-2,0-3,0.9-3,2.9v-1.9c0-2,1-2.9,3-2.9h19c2,0,3,1,3,2.9V179.9"/>
	<path class="st51" d="M755,179.9v-1.9c0-2-1-2.9-3-2.9h-19c-2,0-3,1-3,2.9v1.9v12.2c0,0.8,0.2,1.5,0.5,1.9c0.5,0.7,1.3,1,2.5,1h19
		c1.2,0,2-0.3,2.5-1c0.3-0.5,0.5-1.1,0.5-1.9V179.9 M763,200L763,200c0-2-1-3-3-3h-12c-2,0-3,1-3,2.9v0.1v6.1c0,0.8,0.2,1.5,0.5,1.9
		c0.5,0.7,1.3,1,2.5,1h12c1.2,0,2-0.3,2.5-1c0.3-0.5,0.5-1.1,0.5-1.9V200 M790,160v70h-70v-70H790"/>
	<path class="st5" d="M773,270h-0.5c-0.5-0.7-1.3-1-2.5-1h-12c-1.2,0-2,0.3-2.5,1H755v0c0-2,1-3,3-3h12C772,267,773,268,773,270
		L773,270 M765,284h-0.5c-0.5-0.7-1.3-1-2.5-1h-12c-1.2,0-2,0.3-2.5,1H747v0c0-2,1-3,3-3h12C764,281,765,282,765,284L765,284"/>
	<path class="st6" d="M765,284v6c0,0.8-0.2,1.5-0.5,2c-0.5,0.7-1.3,1-2.5,1h-12c-1.2,0-2-0.3-2.5-1c-0.3-0.5-0.5-1.1-0.5-2v-6h0.5
		c0.5-0.7,1.3-1,2.5-1h12c1.2,0,2,0.3,2.5,1H765 M755,270h0.5c0.5-0.7,1.3-1,2.5-1h12c1.2,0,2,0.3,2.5,1h0.5v6c0,0.8-0.2,1.5-0.5,2
		c-0.5,0.7-1.3,1-2.5,1h-12c-1.2,0-2-0.3-2.5-1c-0.3-0.5-0.5-1.1-0.5-2V270"/>
	<path class="st4" d="M755,270v6c0,0.8,0.2,1.5,0.5,2c0.5,0.7,1.3,1,2.5,1h12c1.2,0,2-0.3,2.5-1c0.3-0.5,0.5-1.1,0.5-2v-6v0
		c0-2-1-3-3-3h-12C756,267,755,268,755,270L755,270 M765,284L765,284c0-2-1-3-3-3h-12c-2,0-3,1-3,3v0v6c0,0.8,0.2,1.5,0.5,2
		c0.5,0.7,1.3,1,2.5,1h12c1.2,0,2-0.3,2.5-1c0.3-0.5,0.5-1.1,0.5-2V284 M790,310h-70v-70h70V310"/>
	<path class="st27" d="M720,320h70v70h-70V320 M773,350L773,350c0-2-1-3-3-3h-12c-2,0-3,1-3,3v0v6c0,0.8,0.2,1.5,0.5,2
		c0.5,0.7,1.3,1,2.5,1h12c1.2,0,2-0.3,2.5-1c0.3-0.5,0.5-1.1,0.5-2V350 M765,364L765,364c0-2-1-3-3-3h-12c-2,0-3,1-3,3v0v6
		c0,0.8,0.2,1.5,0.5,2c0.5,0.7,1.3,1,2.5,1h12c1.2,0,2-0.3,2.5-1c0.3-0.5,0.5-1.1,0.5-2V364"/>
	<path class="st57" d="M765,364v6c0,0.8-0.2,1.5-0.5,2c-0.5,0.7-1.3,1-2.5,1h-12c-1.2,0-2-0.3-2.5-1c-0.3-0.5-0.5-1.1-0.5-2v-6h0.5
		c0.5-0.7,1.3-1,2.5-1h12c1.2,0,2,0.3,2.5,1H765 M755,350h0.5c0.5-0.7,1.3-1,2.5-1h12c1.2,0,2,0.3,2.5,1h0.5v6c0,0.8-0.2,1.5-0.5,2
		c-0.5,0.7-1.3,1-2.5,1h-12c-1.2,0-2-0.3-2.5-1c-0.3-0.5-0.5-1.1-0.5-2V350"/>
	<path class="st55" d="M755,350L755,350c0-2,1-3,3-3h12c2,0,3,1,3,3v0h-0.5c-0.5-0.7-1.3-1-2.5-1h-12c-1.2,0-2,0.3-2.5,1H755
		 M747,364L747,364c0-2,1-3,3-3h12c2,0,3,1,3,3v0h-0.5c-0.5-0.7-1.3-1-2.5-1h-12c-1.2,0-2,0.3-2.5,1H747"/>
	<path class="st51" d="M773,430L773,430c0-2-1-3-3-3h-12c-2,0-3,1-3,3v0v6c0,0.8,0.2,1.5,0.5,2c0.5,0.7,1.3,1,2.5,1h12
		c1.2,0,2-0.3,2.5-1c0.3-0.5,0.5-1.1,0.5-2V430 M765,444L765,444c0-2-1-3-3-3h-12c-2,0-3,1-3,3v0v6c0,0.8,0.2,1.5,0.5,2
		c0.5,0.7,1.3,1,2.5,1h12c1.2,0,2-0.3,2.5-1c0.3-0.5,0.5-1.1,0.5-2V444 M790,470h-70v-70h70V470"/>
	<path class="st61" d="M755,430h0.5c0.5-0.7,1.3-1,2.5-1h12c1.2,0,2,0.3,2.5,1h0.5v6c0,0.8-0.2,1.5-0.5,2c-0.5,0.7-1.3,1-2.5,1h-12
		c-1.2,0-2-0.3-2.5-1c-0.3-0.5-0.5-1.1-0.5-2V430 M747,444h0.5c0.5-0.7,1.3-1,2.5-1h12c1.2,0,2,0.3,2.5,1h0.5v6c0,0.8-0.2,1.5-0.5,2
		c-0.5,0.7-1.3,1-2.5,1h-12c-1.2,0-2-0.3-2.5-1c-0.3-0.5-0.5-1.1-0.5-2V444"/>
	<path class="st62" d="M747,444L747,444c0-2,1-3,3-3h12c2,0,3,1,3,3v0h-0.5c-0.5-0.7-1.3-1-2.5-1h-12c-1.2,0-2,0.3-2.5,1H747
		 M755,430L755,430c0-2,1-3,3-3h12c2,0,3,1,3,3v0h-0.5c-0.5-0.7-1.3-1-2.5-1h-12c-1.2,0-2,0.3-2.5,1H755"/>
	<path class="st63" d="M699.5,534l1.5,2.2l8,3.4l-0.8,1.9l-12.9,2.3l-9.2-6.6L699.5,534 M688.8,521.8l-8.3,3.4l-13-5.3l-22,12.3
		l9.5-8l8-12.3l14.8,6l7.3-1.3L688.8,521.8"/>
	<path class="st64" d="M688.8,521.8l-3.8-5.1l-7.3,1.3l-14.8-6l-8,12.3l-9.5,8l-5.5,3l23.4-26.3l25.2,7.2l8.1,13.1l-1.9,0.5
		L688.8,521.8 M709,539.7l-8-3.4l-1.5-2.2l10.5,2.8L709,539.7"/>
	<path class="st51" d="M699.5,534l-13.5,3.3l9.2,6.6l12.9-2.3l-3.3,8.4h-56.5l-8.3-14.7l5.5-3l22-12.3l13,5.3l8.3-3.4l6,7.9l1.9-0.5
		L699.5,534 M658.1,536.1c-0.5,0-1,0.2-1.3,0.6c-0.4,0.4-0.5,0.8-0.5,1.3s0.2,1,0.5,1.3c0.4,0.4,0.8,0.6,1.3,0.6
		c0.5,0,1-0.2,1.4-0.6c0.4-0.4,0.5-0.8,0.5-1.3s-0.2-1-0.5-1.3C659.1,536.3,658.6,536.1,658.1,536.1 M664.8,530.5
		c-0.9,0-1.7,0.3-2.4,1c-0.7,0.7-1,1.5-1,2.4c0,0.9,0.3,1.7,1,2.4s1.5,1,2.4,1s1.7-0.3,2.4-1s1-1.5,1-2.4c0-0.9-0.3-1.7-1-2.4
		C666.5,530.9,665.7,530.5,664.8,530.5"/>
	<path class="st65" d="M664.8,530.5c0.9,0,1.7,0.3,2.4,1c0.7,0.7,1,1.5,1,2.4c0,0.9-0.3,1.7-1,2.4s-1.5,1-2.4,1s-1.7-0.3-2.4-1
		s-1-1.5-1-2.4c0-0.9,0.3-1.7,1-2.4C663,530.9,663.8,530.5,664.8,530.5 M658.1,536.1c0.5,0,1,0.2,1.4,0.6c0.4,0.4,0.5,0.8,0.5,1.3
		s-0.2,1-0.5,1.3c-0.4,0.4-0.8,0.6-1.4,0.6c-0.5,0-1-0.2-1.3-0.6c-0.4-0.4-0.5-0.8-0.5-1.3s0.2-1,0.5-1.3
		C657.1,536.3,657.6,536.1,658.1,536.1"/>
	<path class="st51" d="M755.5,508.8l7.5,3.3h7.5l6,16.5l0.6,0.3l1.9,8.1l1.5,1l2.3,12h-56.5l3-11.5l24.9-6.2l-7.5-4.6l2.3-6.7
		l0.9,1.9L755.5,508.8 M770.3,541.8c0.4-0.3,0.6-0.8,0.7-1.3c0.1-0.5-0.1-1-0.4-1.4c-0.3-0.4-0.8-0.6-1.3-0.7
		c-0.5-0.1-1,0.1-1.4,0.4s-0.6,0.8-0.7,1.3c0,0.5,0.1,1,0.5,1.4c0.3,0.4,0.8,0.6,1.3,0.7S769.9,542.2,770.3,541.8 M768.3,531.2
		c-0.6-0.7-1.3-1.2-2.3-1.3c-0.9-0.1-1.7,0.1-2.5,0.8c-0.7,0.6-1.2,1.4-1.3,2.3c-0.1,0.9,0.2,1.7,0.8,2.5c0.6,0.7,1.3,1.1,2.3,1.3
		c0.9,0.1,1.8-0.2,2.5-0.8c0.8-0.6,1.2-1.4,1.3-2.3C769.1,532.7,768.9,531.9,768.3,531.2"/>
	<path class="st65" d="M768.3,531.2c0.6,0.7,0.8,1.6,0.8,2.5c-0.1,0.9-0.5,1.6-1.3,2.3c-0.7,0.6-1.6,0.8-2.5,0.8
		c-0.9-0.1-1.7-0.5-2.3-1.3c-0.6-0.7-0.8-1.5-0.8-2.5c0.1-0.9,0.5-1.7,1.3-2.3c0.8-0.6,1.6-0.9,2.5-0.8
		C767,530,767.7,530.4,768.3,531.2 M770.3,541.8c-0.4,0.3-0.9,0.5-1.4,0.4s-1-0.3-1.3-0.7c-0.3-0.4-0.5-0.9-0.5-1.4
		c0.1-0.5,0.3-1,0.7-1.3s0.9-0.5,1.4-0.4c0.5,0.1,1,0.3,1.3,0.7c0.3,0.4,0.5,0.9,0.4,1.4C770.9,541.1,770.6,541.5,770.3,541.8"/>
	<path class="st64" d="M777.1,528.9l-4.8-20.2l-8.8-2.8l-8,2.8L750,523l-0.9-1.9l6.9-19.6l18,3l6.5,33.5l-1.5-1L777.1,528.9
		 M730,536l0.7-2.8l16-5.5v3L730,536"/>
	<path class="st63" d="M730,536l16.7-5.3v-3l7.5,4.6l-24.9,6.2L730,536 M755.5,508.8l8-2.8l8.8,2.8l4.8,20.2l-0.6-0.3l-6-16.5H763
		L755.5,508.8"/>
</g>
</svg>
